<?xml version="1.0"?>
<svg xmlns="http://www.w3.org/2000/svg" viewBox="0 0 64 64">
    <path d="M 13 0 C 5.832 0 0 5.832 0 13 C 0 18.397 3.307 23.033094 8 24.996094 L 8 54.957031 C 8 56.578031 9.3 57.96875 11 57.96875 L 59 57.96875 C 60.7 57.96875 62 56.578031 62 54.957031 L 62 13.009766 C 62 11.388766 60.7 10 59 10 L 54 10 L 54 7 C 54 5.346 52.654 4 51 4 C 49.346 4 48 5.346 48 7 L 48 10 L 38 10 L 38 7 C 38 5.346 36.654 4 35 4 C 33.346 4 32 5.346 32 7 L 32 10 L 25.636719 10 C 24.276719 4.276 19.134 0 13 0 z M 13 2 C 15.673 2 18.124203 2.9617344 20.033203 4.5527344 L 4.5527344 20.033203 C 2.9617344 18.124203 2 15.673 2 13 C 2 6.935 6.935 2 13 2 z M 21.447266 5.9667969 C 23.038266 7.8757969 24 10.327 24 13 C 24 19.065 19.065 24 13 24 C 10.327 24 7.8757969 23.038266 5.9667969 21.447266 L 21.447266 5.9667969 z M 35 6 C 35.551 6 36 6.449 36 7 L 36 15 C 36 15.551 35.551 16 35 16 C 34.449 16 34 15.551 34 15 L 34 7 C 34 6.449 34.449 6 35 6 z M 51 6 C 51.551 6 52 6.449 52 7 L 52 15 C 52 15.551 51.551 16 51 16 C 50.449 16 50 15.551 50 15 L 50 7 C 50 6.449 50.449 6 51 6 z M 25.947266 11.96875 L 32 11.96875 L 32 15 C 32 16.654 33.346 18 35 18 C 36.654 18 38 16.654 38 15 L 38 11.96875 L 48 11.96875 L 48 15 C 48 16.654 49.346 18 51 18 C 52.654 18 54 16.654 54 15 L 54 11.96875 L 59 11.96875 C 59.6 11.96875 60 12.430766 60 13.009766 L 60 20 C 59.4 20 59 20.447 59 21 L 59 23 C 59 23.553 59.4 24 60 24 L 60 54.957031 C 60 55.536031 59.6 56 59 56 L 11 56 C 10.4 56 10 55.536031 10 54.957031 L 10 25.636719 C 10.965 25.865719 11.966 26 13 26 C 20.168 26 26 20.168 26 13 C 26 12.652 25.974266 12.31075 25.947266 11.96875 z M 25 20 C 24.4 20 24 20.447 24 21 L 24 23 C 24 23.552 24.4 24 25 24 C 25.6 24 26 23.553 26 23 L 26 21 C 26 20.447 25.6 20 25 20 z M 30 20 C 29.4 20 29 20.447 29 21 L 29 23 C 29 23.552 29.4 24 30 24 C 30.6 24 31 23.553 31 23 L 31 21 C 31 20.447 30.6 20 30 20 z M 35 20 C 34.4 20 34 20.447 34 21 L 34 23 C 34 23.552 34.4 24 35 24 C 35.6 24 36 23.553 36 23 L 36 21 C 36 20.447 35.6 20 35 20 z M 40 20 C 39.4 20 39 20.447 39 21 L 39 23 C 39 23.552 39.4 24 40 24 C 40.6 24 41 23.553 41 23 L 41 21 C 41 20.447 40.6 20 40 20 z M 45 20 C 44.4 20 44 20.447 44 21 L 44 23 C 44 23.552 44.4 24 45 24 C 45.6 24 46 23.553 46 23 L 46 21 C 46 20.447 45.6 20 45 20 z M 50 20 C 49.4 20 49 20.447 49 21 L 49 23 C 49 23.552 49.4 24 50 24 C 50.6 24 51 23.553 51 23 L 51 21 C 51 20.447 50.6 20 50 20 z M 55 20 C 54.4 20 54 20.447 54 21 L 54 23 C 54 23.552 54.4 24 55 24 C 55.6 24 56 23.553 56 23 L 56 21 C 56 20.447 55.6 20 55 20 z M 34.923828 26.169922 C 34.517828 26.169922 34.152047 26.416969 33.998047 26.792969 L 31.513672 32.878906 L 24.757812 33.494141 C 24.359813 33.531141 24.021438 33.800641 23.898438 34.181641 C 23.774438 34.561641 23.890406 34.980141 24.191406 35.244141 L 29.291016 39.701172 L 27.726562 46.097656 C 27.629562 46.492656 27.781375 46.905531 28.109375 47.144531 C 28.284375 47.271531 28.490266 47.335937 28.697266 47.335938 C 28.879266 47.335938 29.063609 47.285547 29.224609 47.185547 L 34.923828 43.65625 L 40.625 47.185547 C 40.97 47.399547 41.410281 47.383531 41.738281 47.144531 C 42.066281 46.905531 42.218094 46.492656 42.121094 46.097656 L 40.558594 39.701172 L 45.65625 35.244141 C 45.95725 34.980141 46.073219 34.562641 45.949219 34.181641 C 45.825219 33.800641 45.487844 33.531141 45.089844 33.494141 L 38.333984 32.878906 L 35.849609 26.792969 C 35.696609 26.416969 35.329828 26.169922 34.923828 26.169922 z M 34.925781 29.816406 L 36.712891 34.197266 C 36.853891 34.543266 37.176828 34.782406 37.548828 34.816406 L 42.585938 35.273438 L 38.785156 38.595703 C 38.504156 38.841703 38.383656 39.224891 38.472656 39.587891 L 39.599609 44.197266 L 35.451172 41.630859 C 35.290172 41.530859 35.107781 41.480469 34.925781 41.480469 C 34.743781 41.480469 34.561391 41.530859 34.400391 41.630859 L 30.251953 44.197266 L 31.378906 39.587891 C 31.467906 39.224891 31.347406 38.841703 31.066406 38.595703 L 27.267578 35.273438 L 32.302734 34.816406 C 32.674734 34.782406 32.995719 34.543266 33.136719 34.197266 L 34.925781 29.816406 z M 13 50 C 12.448 50 12 50.448 12 51 C 12 51.552 12.448 52 13 52 L 57 52 C 57.552 52 58 51.552 58 51 C 58 50.448 57.552 50 57 50 L 13 50 z"/>
</svg>
