<?xml version="1.0" encoding="utf-8"?>
<!-- Generator: Adobe Illustrator 27.4.0, SVG Export Plug-In . SVG Version: 6.00 Build 0)  -->
<svg version="1.1" id="레이어_1" xmlns="http://www.w3.org/2000/svg" xmlns:xlink="http://www.w3.org/1999/xlink" x="0px"
	 y="0px" viewBox="0 0 226.8 226.8" style="enable-background:new 0 0 226.8 226.8;" xml:space="preserve">
<style type="text/css">
	.st0{display:none;}
	.st1{display:inline;}
	.st2{fill:none;stroke:#0C1A38;stroke-width:4;stroke-linecap:round;stroke-linejoin:round;stroke-miterlimit:10;}
	.st3{fill:#FFFFFF;stroke:#0C1A38;stroke-width:4;stroke-linecap:round;stroke-linejoin:round;stroke-miterlimit:10;}
	.st4{display:inline;fill:#0E1B39;}
	.st5{fill:none;}
	.st6{fill:#FFFFFF;stroke:#101C3A;stroke-width:4;stroke-linecap:round;stroke-linejoin:round;stroke-miterlimit:10;}
	.st7{fill:none;stroke:#101C3A;stroke-width:4;stroke-linecap:round;stroke-linejoin:round;stroke-miterlimit:10;}
	.st8{fill:#253355;}
	.st9{fill:#0E1B39;}
	.st10{fill:#0C1A38;}
	.st11{fill:#FFFFFF;}
	.st12{display:none;fill:#0E1B39;}
	.st13{fill:#0B0E10;}
	.st14{fill:#040000;}
</style>
<g class="st0">
	<g class="st1">
		<line class="st2" x1="55.2" y1="98.6" x2="170.9" y2="98.6"/>
		<polyline class="st2" points="170.9,98.6 170.9,170.1 55.2,170.1 55.2,98.6 		"/>
		<polyline class="st2" points="170.2,99.1 113.1,57.3 55.9,99.1 		"/>
		<polyline class="st3" points="76.2,113.4 76.2,64.9 150.1,64.9 150.1,112.8 		"/>
		<line class="st2" x1="170.5" y1="98.2" x2="121.4" y2="134.1"/>
		<line class="st2" x1="103.8" y1="133.4" x2="55.6" y2="98.2"/>
		<polygon class="st3" points="170.5,170.1 113.1,128.2 55.6,170.1 		"/>
	</g>
	<path class="st4" d="M118.3,100c0,0-4.7-4.8-5-5.1c-1.2-1.2-1.8-3.6-0.2-5.3c1.2-1.2,2.7-1.1,3.8-0.7c0.8,0.3,1.3,0.9,1.7,1.3
		c0.4-0.4,0.9-1,1.7-1.3c1.1-0.4,2.6-0.4,3.8,0.7c1.8,1.8,1,4.2-0.1,5.2c-0.4,0.4-5.2,5.1-5.2,5.1l0,0.4l2.6,0
		c2.3,0,4.1-0.5,5.5-1.5c1.4-0.9,2.5-2.3,3.2-4c0.4-1,1.5-4.6-1.3-8.1s-6.6-3.3-7.2-3.3l-17.7-0.2c-0.8,0-1.5,0.6-1.5,1.5l-0.2,18.4
		c0,4.4,3.5,8.1,8,8.1s8.1-3.5,8.1-8L118.3,100z"/>
</g>
<g class="st0">
	<g class="st1">
		<path class="st5" d="M164.8,82.9H58.2c-1.5,0-2.8,1.2-2.8,2.8v59.1h112.1V85.6C167.6,84.1,166.3,82.9,164.8,82.9z"/>
		<path class="st6" d="M134.6,163.3h-6.4l-1.6-8.7h-13.4H99.8l-1.6,8.7h-6.3c-1,0-1.8,0.8-1.8,1.8v1.4c0,1,0.8,1.8,1.8,1.8h8.5h12.8
			h12.8h8.5c1,0,1.8-0.8,1.8-1.8v-1.4C136.3,164.1,135.6,163.3,134.6,163.3z"/>
		<path class="st6" d="M55.5,152.9c0,1.5,1.2,2.8,2.8,2.8h110c1.5,0,2.8-1.2,2.8-2.8v-8.1H55.5V152.9z"/>
		<path class="st7" d="M168.2,79.3h-110c-1.5,0-2.8,1.2-2.8,2.8v62.7H171V82C171,80.5,169.7,79.3,168.2,79.3z"/>
	</g>
	<g class="st1">
		
			<image style="overflow:visible;opacity:0.75;enable-background:new    ;" width="201" height="164" xlink:href="C4A2BB01.png"  transform="matrix(0.4214 0 0 0.4214 70.8798 17.85)">
		</image>
		<g>
			<g>
				<path class="st7" d="M131,49.8c-4.6-4.6-10.9-7.4-17.9-7.4c-7,0-13.3,2.8-17.9,7.4"/>
				<path class="st7" d="M101.3,55.9c3-3,7.2-4.9,11.8-4.9s8.8,1.9,11.8,4.9"/>
				<path class="st7" d="M107.7,62.2c1.4-1.4,3.3-2.2,5.4-2.2c2.1,0,4,0.9,5.4,2.2"/>
				<path class="st7" d="M124.9,55.9c-3-3-7.2-4.9-11.8-4.9s-8.8,1.9-11.8,4.9"/>
				<path class="st7" d="M118.6,62.2c-1.4-1.4-3.3-2.2-5.4-2.2c-2.1,0-4,0.9-5.4,2.2"/>
			</g>
		</g>
	</g>
	<path class="st4" d="M115.4,116.5c0,0-4.7-4.8-5-5.1c-1.2-1.2-1.8-3.6-0.2-5.3c1.2-1.2,2.7-1.1,3.8-0.7c0.8,0.3,1.3,0.9,1.7,1.3
		c0.4-0.4,0.9-1,1.7-1.3c1.1-0.4,2.6-0.4,3.8,0.7c1.8,1.8,1,4.2-0.1,5.2c-0.4,0.4-5.2,5.1-5.2,5.1l0,0.4l2.6,0
		c2.3,0,4.1-0.5,5.5-1.5c1.4-0.9,2.5-2.3,3.2-4c0.4-1,1.5-4.6-1.3-8.1s-6.6-3.3-7.2-3.3L101,99.8c-0.8,0-1.5,0.6-1.5,1.5l-0.2,18.4
		c0,4.4,3.5,8.1,8,8.1s8.1-3.5,8.1-8L115.4,116.5z"/>
</g>
<g id="엄빠1" class="st0">
	<path class="st4" d="M118.5,70.6c0,0-4.7-4.8-5-5.1c-1.2-1.2-1.8-3.6-0.2-5.3c1.2-1.2,2.7-1.1,3.8-0.7c0.8,0.3,1.3,0.9,1.7,1.3
		c0.4-0.4,0.9-1,1.7-1.3c1.1-0.4,2.6-0.5,3.8,0.7c1.8,1.8,1,4.2-0.1,5.2c-0.4,0.4-5.2,5.1-5.2,5.1l0,0.4l2.6,0
		c2.3,0,4.1-0.5,5.5-1.5c1.4-0.9,2.5-2.3,3.2-4c0.4-1,1.5-4.6-1.3-8.1s-6.6-3.3-7.2-3.3L104.1,54c-0.8,0-1.5,0.6-1.5,1.5l-0.2,18.4
		c0,4.4,3.5,8.1,8,8.1s8.1-3.5,8.1-8L118.5,70.6z"/>
	<g class="st1">
		<path class="st5" d="M91.5,87.7c3,1.1,4.7,2,6,6.1c1.4,4.4,0.4,9.2,0,12.7l-8.7-7.9c-9.2,5.6-21.7,5.7-27.9,4l-4,4.8
			c-0.7-1.3-1-10.6,0.5-15.7c2.3-7.4,12.7-12,18.6-12C81.2,79.6,87.2,80.7,91.5,87.7z"/>
		<path class="st5" d="M170,111.5c0,4.2,4.4,13.2,5.6,14.8c-1.8,1-9.8,4.2-17.2,3.2C164.7,124.2,167.7,118.3,170,111.5z"/>
		<path class="st5" d="M145,94.3c5.2,8.5,19.7,14.6,23.2,15.1c2.4-5.3,4.4-16.2-2.4-23c-11.5-11.5-24.5-5.9-25.6-2.2
			c-6.7-0.7-13.6,13.9-8.3,26.9C136.9,99.5,145,94.3,145,94.3z"/>
		<g>
			<path class="st8" d="M95.7,116.4c-0.1,0-0.2,0-0.3,0c-0.9-0.2-1.4-1-1.2-1.9c0.2-1.2,1.1-1.8,1.6-2.2c0.6-0.4,1.2-0.8,1.6-2.4
				c0.6-2.7,0.1-3.4,0-3.5c-0.6-0.7-0.5-1.7,0.2-2.2c0.7-0.6,1.7-0.5,2.2,0.2c1.1,1.3,1.3,3.4,0.6,6.2c-0.7,2.8-2,3.7-2.8,4.3
				c-0.1,0.1-0.3,0.2-0.4,0.3C97.1,115.9,96.4,116.4,95.7,116.4z"/>
		</g>
		<g>
			<path class="st8" d="M59.3,116.3c-0.7,0-1.4-0.5-1.6-1.3c0,0-0.2-0.1-0.4-0.2c-0.8-0.6-2.2-1.5-2.8-4.3c-1-4.1,0.1-5.9,1.1-6.8
				c0.7-0.5,1.7-0.4,2.2,0.3c0.5,0.7,0.4,1.7-0.3,2.2c-0.2,0.2-0.6,1.1,0,3.5c0.4,1.6,0.9,2,1.6,2.4c0.6,0.4,1.4,1,1.6,2.2
				c0.2,0.9-0.4,1.7-1.2,1.9C59.5,116.3,59.4,116.3,59.3,116.3z"/>
		</g>
		<g>
			<path class="st9" d="M77.5,136.2c-9.6,0-17.9-8.9-19.8-21.2c-0.1-0.9,0.5-1.7,1.3-1.8c0.9-0.1,1.7,0.5,1.8,1.3
				c1.6,10.7,8.6,18.5,16.6,18.5s15-7.8,16.6-18.5c0.1-0.9,0.9-1.5,1.8-1.3c0.9,0.1,1.5,0.9,1.3,1.8
				C95.4,127.3,87.1,136.2,77.5,136.2z"/>
		</g>
		<g>
			<path class="st8" d="M77.5,129c-1.9,0-3.9-0.7-5.7-2.1c-0.7-0.5-0.8-1.5-0.3-2.2c0.5-0.7,1.5-0.8,2.2-0.3c2.5,1.9,5.1,1.9,7.6,0
				c0.7-0.5,1.7-0.4,2.2,0.3s0.4,1.7-0.3,2.2C81.4,128.2,79.4,129,77.5,129z"/>
		</g>
		<g>
			<path class="st9" d="M88.2,117.8h-5c-2.1,0-3.8-1.7-3.8-3.8v-2.9c0-2.1,1.7-3.8,3.8-3.8h5c2.1,0,3.8,1.7,3.8,3.8v2.9
				C92,116.1,90.3,117.8,88.2,117.8z M83.2,110.4c-0.4,0-0.7,0.3-0.7,0.7v2.9c0,0.4,0.3,0.7,0.7,0.7h5c0.4,0,0.7-0.3,0.7-0.7v-2.9
				c0-0.4-0.3-0.7-0.7-0.7H83.2z"/>
		</g>
		<g>
			<path class="st9" d="M72.3,117.8h-5c-2.1,0-3.8-1.7-3.8-3.8v-2.9c0-2.1,1.7-3.8,3.8-3.8h5c2.1,0,3.8,1.7,3.8,3.8v2.9
				C76.2,116.1,74.4,117.8,72.3,117.8z M67.3,110.4c-0.4,0-0.7,0.3-0.7,0.7v2.9c0,0.4,0.3,0.7,0.7,0.7h5c0.4,0,0.7-0.3,0.7-0.7v-2.9
				c0-0.4-0.3-0.7-0.7-0.7H67.3z"/>
		</g>
		<g>
			<path class="st9" d="M80,114c-0.3,0-0.6-0.1-0.9-0.3c-1.2-0.8-2.2-0.8-3.4,0c-0.7,0.5-1.7,0.3-2.2-0.4c-0.5-0.7-0.3-1.7,0.4-2.2
				c2.2-1.6,4.6-1.6,6.9,0c0.7,0.5,0.9,1.5,0.4,2.2C81,113.7,80.5,114,80,114z"/>
		</g>
		<g>
			<path class="st9" d="M155.7,109.9c-0.4,0-0.9-0.2-1.2-0.6c-0.6-0.7-0.5-1.7,0.2-2.2c0.5-0.4,1.6-1.2,3.2-1.2c0,0,0.1,0,0.1,0
				c1.7,0,2.9,0.9,3.3,1.2c0.7,0.6,0.7,1.6,0.2,2.2c-0.6,0.7-1.6,0.7-2.2,0.2c-0.1-0.1-0.6-0.5-1.3-0.5c-0.6,0-1.1,0.3-1.2,0.5
				C156.5,109.8,156.1,109.9,155.7,109.9z"/>
		</g>
		<g>
			<path class="st9" d="M140.6,109.9c-0.4,0-0.9-0.2-1.2-0.6c-0.6-0.7-0.5-1.7,0.2-2.2c0.4-0.4,1.6-1.2,3.3-1.2c0,0,0.1,0,0.1,0
				c1.6,0,2.7,0.8,3.2,1.2c0.7,0.6,0.7,1.6,0.2,2.2s-1.6,0.7-2.2,0.2c-0.2-0.1-0.6-0.4-1.2-0.5c-0.7,0-1.1,0.3-1.3,0.5
				C141.3,109.8,140.9,109.9,140.6,109.9z"/>
		</g>
		<g>
			<path class="st9" d="M150.7,124.1c-2,0-4-0.7-5.8-2.1c-0.7-0.5-0.8-1.5-0.3-2.2c0.5-0.7,1.5-0.8,2.2-0.3c2.6,2,5.3,2,7.8,0
				c0.7-0.5,1.7-0.4,2.2,0.3s0.4,1.7-0.3,2.2C154.8,123.3,152.7,124.1,150.7,124.1z"/>
		</g>
		<g>
			<path class="st9" d="M165.1,130.5c-0.9,0-1.6-0.7-1.6-1.5c0-0.9,0.7-1.6,1.5-1.6c3.1-0.1,5.8-0.9,7.9-1.8c-1-1.6-1.9-3.6-2.8-5.5
				c-1.8-4-2.7-7-2.7-9.3c0-0.9,0.7-1.6,1.6-1.6c0.9,0,1.6,0.7,1.6,1.6c0,1.8,0.9,4.5,2.4,8c1.1,2.4,2.3,4.9,3.4,6.5
				c0.3,0.4,0.4,0.8,0.3,1.3c-0.1,0.4-0.4,0.8-0.8,1.1C172.6,129.4,168.9,130.4,165.1,130.5C165.2,130.5,165.1,130.5,165.1,130.5z"
				/>
		</g>
		<g>
			<path class="st9" d="M136.3,130.1c-3.9,0-7.9-1-11.5-3c-0.4-0.2-0.7-0.6-0.8-1.1c-0.1-0.4,0-0.9,0.3-1.3c1.4-1.9,3.2-4.7,4.1-7.2
				c1.1-3.1,2-8.2,2.1-8.2c0.2-0.9,1-1.4,1.9-1.3c0.9,0.2,1.4,1,1.3,1.8c0,0.2-1,5.4-2.2,8.7c-0.8,2.2-2.2,4.6-3.5,6.5
				c2.7,1.2,5.5,1.8,8.3,1.8c0.9,0,1.6,0.7,1.6,1.6C137.9,129.4,137.2,130.1,136.3,130.1C136.3,130.1,136.3,130.1,136.3,130.1z"/>
		</g>
		<g>
			<path class="st10" d="M150.9,131.7c-9.6,0-17.8-8.9-19.6-21.1c-0.1-0.9,0.5-1.7,1.3-1.8c0.9-0.1,1.7,0.5,1.8,1.3
				c1.6,10.7,8.6,18.4,16.5,18.4c8,0,14.9-7.7,16.5-18.4c0.1-0.9,0.9-1.5,1.8-1.3c0.9,0.1,1.5,0.9,1.3,1.8
				C168.7,122.8,160.5,131.7,150.9,131.7z"/>
		</g>
		<g>
			<path class="st9" d="M132.9,112.7c-0.6,0-1.2-0.4-1.5-1c-3.8-9.3-1.7-19.6,2.4-25c1.9-2.5,4.1-3.9,6.4-4.1c1.1-1.7,3.6-3.2,6.7-4
				c6.7-1.7,13.8,0.3,19.1,5.4c9,8.7,7,20.9,4.7,26.1c-0.3,0.7-1,1-1.7,0.9c-4.4-0.7-21.7-6.8-27.1-18.7c-0.4-0.8,0-1.7,0.8-2.1
				c0.8-0.4,1.7,0,2.1,0.8c4.4,9.7,18.2,15.3,23.4,16.7c1.8-5,2.7-14.4-4.4-21.3c-6.4-6.2-13.4-5.3-16.1-4.6c-3.1,0.8-4.8,2.2-5,3
				c-0.2,0.7-0.9,1.2-1.7,1.1c-1.5-0.2-3.1,0.9-4.6,2.8c-2.8,3.8-4.6,10.3-3.4,16.9c1.1-2.4,3.1-5.2,6.2-7.8
				c0.7-0.6,1.7-0.4,2.2,0.2c0.6,0.7,0.4,1.7-0.2,2.2c-5.2,4.2-6.4,9.1-6.7,11c-0.1,0.7-0.7,1.3-1.4,1.4
				C133.1,112.7,133,112.7,132.9,112.7z"/>
		</g>
		<g>
			<path class="st9" d="M185.7,155.7c-0.9,0-1.6-0.7-1.6-1.6c0-8.2-6.9-14.8-18.6-17.8l-13.6,12.3c-0.6,0.5-1.5,0.5-2.1,0
				l-13.6-12.3c-2.1,0.5-4.1,1.2-5.8,2c-0.8,0.3-1.7,0-2.1-0.8c-0.3-0.8,0-1.7,0.8-2.1c2.2-0.9,4.6-1.7,7.2-2.3c0.5-0.1,1,0,1.4,0.4
				l13.2,11.9l13.2-11.9c0.4-0.4,0.9-0.5,1.4-0.4c13.7,3.3,21.9,11.1,21.9,21.1C187.3,155,186.6,155.7,185.7,155.7z"/>
		</g>
		<g>
			<path class="st9" d="M56.6,109.3c-0.2,0-0.3,0-0.5-0.1c-0.6-0.2-1.1-0.8-1.1-1.5v-8.5c0-10.6,5.6-18.1,15.5-20.6
				c7.8-1.9,18,0.1,22.1,7.6c6.9,2.2,6.9,9.3,6.8,13.2v8.2c0,0.7-0.4,1.2-1,1.5c-0.6,0.2-1.3,0.1-1.8-0.4l-7.6-8.5
				c-8.4,4.7-20.2,5.7-27.6,4l-3.6,4.5C57.5,109.1,57.1,109.3,56.6,109.3z M89.4,96.7c0.4,0,0.9,0.2,1.2,0.5l5.7,6.4v-4.1
				c0-4.9-0.3-9.1-5.2-10.3c-0.5-0.1-0.8-0.4-1-0.8c-3-6.3-11.9-8.3-18.8-6.6c-4.9,1.2-13.1,5.1-13.1,17.5v3.9l1.4-1.8
				c0.4-0.5,1.1-0.7,1.7-0.5c7,2,19.1,1,27.3-4.1C88.8,96.7,89.1,96.7,89.4,96.7z"/>
		</g>
		<g>
			<path class="st9" d="M111.2,154.4c-0.8,0-1.5-0.6-1.5-1.4c0-7.2-6.6-13-17.8-15.7c-1.5,1.9-5.8,5.9-14.4,5.9
				c-8.6,0-12.9-4-14.5-5.9c-11.1,2.7-17.8,8.5-17.8,15.7c0,0.8-0.7,1.4-1.5,1.4c-0.8,0-1.5-0.6-1.5-1.4c0-8.8,7.9-15.8,21.1-18.7
				c0.7-0.1,1.4,0.1,1.7,0.7c0.1,0.2,3.3,5.3,12.4,5.3c9.1,0,12.3-5.1,12.4-5.3c0.3-0.6,1-0.8,1.7-0.7c13.2,2.9,21.1,9.9,21.1,18.7
				C112.8,153.8,112.1,154.4,111.2,154.4z"/>
		</g>
	</g>
	<g class="st1">
		<circle class="st11" cx="112.4" cy="137.8" r="16.7"/>
		<circle class="st11" cx="99.1" cy="139" r="4.7"/>
		<circle class="st11" cx="127.4" cy="140.1" r="4.7"/>
		<path class="st9" d="M132.2,135.9c-0.6-0.5-1.5-0.7-2.1-0.7c-1.2-8.3-8.6-14.7-17.2-14.7c-8.7,0-16,6.3-17.2,14.7
			c-0.7,0-1.5,0.1-2.1,0.7c-0.4,0.3-0.9,1-0.9,2.1c0,3.7,2.7,5.6,4.1,6c2.6,6.5,9,10.8,16.2,10.8c7.2,0,13.6-4.3,16.2-10.8
			c1.4-0.5,4.1-2.4,4.1-6C133.1,136.8,132.6,136.2,132.2,135.9z M129.2,141.7c-0.1-0.1-0.2-0.2-0.4-0.2c-0.5-0.2-1.1,0.1-1.2,0.6
			c-2,6.4-7.9,10.7-14.8,10.7c-6.7,0-12.6-4.2-14.7-10.4c-0.2-0.5-0.7-0.8-1.3-0.6c-0.1,0-0.1,0.1-0.2,0.1c-0.8-0.4-2.2-1.6-2.2-3.9
			c0-0.4,0.1-0.5,0.2-0.6c0.3-0.2,1.1-0.2,1.5-0.2c0.5,0.1,1-0.2,1.1-0.7c0,0,0,0,0,0c0,0,0,0,0,0v0c0.1-0.1,0.1-0.2,0.1-0.3
			c0.8-7.8,7.4-13.6,15.4-13.6c7.9,0,14.7,6.1,15.4,13.8c0.1,0.5,0.5,0.9,1,0.9c0,0,0.1,0,0.1,0s0.1,0,0.1,0c0,0,0.1,0,0.1,0
			c0.4-0.1,1.1-0.1,1.5,0.2c0.1,0,0.2,0.1,0.2,0.6C131.1,140,130,141.1,129.2,141.7z"/>
		<path class="st9" d="M106.6,135.4c-1.1,0-2,0.9-2,2c0,1.1,0.9,2,2,2c1.1,0,2-0.9,2-2C108.6,136.3,107.7,135.4,106.6,135.4z"/>
		<path class="st9" d="M119.1,135.4c-1.1,0-2,0.9-2,2c0,1.1,0.9,2,2,2c1.1,0,2-0.9,2-2C121.1,136.3,120.2,135.4,119.1,135.4z"/>
		<g>
			<path class="st9" d="M112.5,148.2c-2.1,0-4-0.8-5.4-2.2c-0.4-0.4-0.4-1,0-1.4c0.4-0.4,1-0.4,1.4,0c1.1,1.1,2.6,1.7,4.3,1.6
				c1.5-0.1,3-0.7,3.9-1.6c0.4-0.4,1-0.4,1.4,0c0.4,0.4,0.4,1,0,1.4c-1.3,1.3-3.2,2.1-5.3,2.2C112.7,148.2,112.6,148.2,112.5,148.2z
				"/>
		</g>
		<g>
			<path class="st9" d="M110.6,121.9c-0.3,0-0.7-0.2-0.8-0.5c-0.5-0.8-2-1.6-2.9-1.8c-0.5-0.2-0.8-0.7-0.6-1.3
				c0.2-0.5,0.7-0.8,1.2-0.6c0.3,0.1,2.9,1,3.9,2.7c0.3,0.5,0.1,1.1-0.3,1.4C110.9,121.9,110.8,121.9,110.6,121.9z"/>
		</g>
		<g>
			<path class="st9" d="M114.5,122.5c-0.2,0-0.3-0.1-0.5-0.1c-0.5-0.3-0.6-0.9-0.3-1.4c1-1.7,3.6-2.6,3.9-2.7
				c0.5-0.2,1.1,0.1,1.2,0.6s-0.1,1.1-0.6,1.3c-0.8,0.3-2.4,1-2.9,1.8C115.2,122.3,114.9,122.5,114.5,122.5z"/>
		</g>
		<g>
			<path class="st9" d="M112.3,121.9c-0.3,0-0.7-0.2-0.8-0.5c-1-1.7-0.3-5.6-0.1-6.4c0.1-0.5,0.6-0.9,1.2-0.8
				c0.5,0.1,0.9,0.6,0.8,1.2c-0.4,1.9-0.5,4.3-0.1,5c0.3,0.5,0.1,1.1-0.3,1.4C112.6,121.9,112.4,121.9,112.3,121.9z"/>
		</g>
		<g>
			<path class="st9" d="M133.6,170.1c-0.6,0-1-0.5-1-1.1c0-5.5-4.3-9.9-11.5-12c-1,1.4-3.8,4.5-9.4,4.5s-8.4-3-9.4-4.5
				c-7.2,2.1-11.5,6.5-11.5,12c0,0.6-0.4,1.1-1,1.1s-1-0.5-1-1.1c0-6.7,5.1-12,13.7-14.2c0.4-0.1,0.9,0.1,1.1,0.5
				c0.1,0.2,2.2,4.1,8.1,4.1c5.9,0,8-3.9,8.1-4.1c0.2-0.4,0.7-0.6,1.1-0.5c8.6,2.2,13.7,7.5,13.7,14.2
				C134.6,169.7,134.2,170.1,133.6,170.1z"/>
		</g>
		<g>
			<path class="st9" d="M133.6,170.1c-0.6,0-1-0.5-1-1.1c0-5.5-4.3-9.9-11.5-12c-1,1.4-3.8,4.5-9.4,4.5s-8.4-3-9.4-4.5
				c-7.2,2.1-11.5,6.5-11.5,12c0,0.6-0.4,1.1-1,1.1s-1-0.5-1-1.1c0-6.7,5.1-12,13.7-14.2c0.4-0.1,0.9,0.1,1.1,0.5
				c0.1,0.2,2.2,4.1,8.1,4.1c5.9,0,8-3.9,8.1-4.1c0.2-0.4,0.7-0.6,1.1-0.5c8.6,2.2,13.7,7.5,13.7,14.2
				C134.6,169.7,134.2,170.1,133.6,170.1z"/>
		</g>
	</g>
</g>
<g class="st0">
	<path class="st4" d="M120,72c0,0-5.1-5.2-5.4-5.5c-1.3-1.3-2-3.8-0.2-5.7c1.3-1.3,2.9-1.2,4.1-0.7c0.9,0.4,1.4,0.9,1.8,1.4
		c0.4-0.5,0.9-1,1.8-1.4c1.2-0.5,2.8-0.5,4.1,0.8c2,2,1.1,4.5-0.1,5.6c-0.5,0.4-5.7,5.5-5.7,5.5l0,0.5l2.8,0c2.5,0,4.5-0.6,5.9-1.6
		c1.5-1,2.7-2.4,3.4-4.3c0.4-1.1,1.6-4.9-1.4-8.8c-3-3.8-7.1-3.6-7.7-3.6L104.4,54c-0.8,0-1.6,0.7-1.6,1.6l-0.2,19.8
		c0,4.8,3.8,8.7,8.6,8.7s8.7-3.8,8.7-8.6L120,72z"/>
	<g class="st1">
		<polygon class="st6" points="118.2,109.8 136.6,105.2 153.6,125.3 141.4,146.7 113.6,139.7 		"/>
		<path class="st6" d="M147.5,139.5c-9.6-7.3-19.4-14.5-28.9-21.9l-1,0.2l0.6-5.6l-26.2-7l-16.9,20.1l12.2,21.3l4.9-1.2
			c0.7,0.5,1.4,1,2.2,1.6c7.4,5.1,14.5,10.8,21.7,16.3c1.9,1.4,3.7,2.9,5.6,4.2c2.1,1.6,5.1,1.2,6.6-0.9s1.2-5.1-0.9-6.6l2.1,1.6
			c2.1,1.6,5.1,1.2,6.6-0.9c1.6-2.1,1.2-5.1-0.9-6.6l1.8,1.3c2.1,1.6,5.1,1.2,6.6-0.9c1.6-2.1,1.2-5.1-0.9-6.6l-0.9-0.7
			c2.1,1.6,5.1,1.2,6.6-0.9C150,144.1,149.6,141.1,147.5,139.5z"/>
		<line class="st7" x1="145.4" y1="148.6" x2="138.3" y2="143.3"/>
		<line class="st7" x1="135.6" y1="154.4" x2="128.5" y2="149"/>
		<line class="st7" x1="127.3" y1="160" x2="123.8" y2="157.3"/>
		<g>
			<path class="st6" d="M97.8,160c-1.7,2.4-4.9,2.9-7.3,1.3l0,0c-2.4-1.7-2.9-4.9-1.3-7.3l5.3-7.6c1.7-2.4,4.9-2.9,7.3-1.3l0,0
				c2.4,1.7,2.9,4.9,1.3,7.3L97.8,160z"/>
			<path class="st6" d="M106.2,164.8c-1.5,2.3-4.6,2.9-6.9,1.3l0,0c-2.3-1.5-2.9-4.6-1.3-6.9l3.9-5.8c1.5-2.3,4.6-2.9,6.9-1.3l0,0
				c2.3,1.5,2.9,4.6,1.3,6.9L106.2,164.8z"/>
			<path class="st6" d="M91.2,151.3c-1.5,1.9-4.3,2.3-6.3,0.8l0,0c-1.9-1.5-2.3-4.3-0.8-6.3l3.3-4.3c1.5-1.9,4.3-2.3,6.3-0.8l0,0
				c1.9,1.5,2.3,4.3,0.8,6.3L91.2,151.3z"/>
			<path class="st6" d="M115.3,166.7c-1.2,1.9-3.8,2.4-5.7,1.1l0,0c-1.9-1.2-2.4-3.8-1.1-5.7l2-3c1.2-1.9,3.8-2.4,5.7-1.1l0,0
				c1.9,1.2,2.4,3.8,1.1,5.7L115.3,166.7z"/>
		</g>
		<path class="st6" d="M133.1,105.2"/>
		<path class="st6" d="M125.3,121.6l-12.1,6.7c-3,1.9-7.1,1-9-2.1l0,0c-1.9-3-1-7.1,2.1-9l9.7-6.1l1.8-1.2l3.2-1"/>
		<path class="st6" d="M153.4,126.1l-21-21c-0.9-0.9-0.9-2.3,0-3.2l26.8-26.8c0.9-0.9,2.3-0.9,3.2,0l21,20.9c0.9,0.9,0.9,2.3,0,3.2
			l-26.8,26.8C155.7,127,154.2,127,153.4,126.1z"/>
		<path class="st6" d="M74.5,126.2l21.1-21.1c0.8-0.8,0.8-2.2,0-3.1L68.8,76.7c-0.8-0.8-2.2-0.8-3,0L44.8,97.8
			c-0.8,0.8-0.8,2.2,0,3.1l26.7,25.4C72.3,127.1,73.7,127,74.5,126.2z"/>
	</g>
</g>
<g id="엄빠2" class="st0">
	<g class="st1">
		<path class="st5" d="M90.6,87.7c3,1.1,4.7,2,6,6.1c1.4,4.4,0.4,9.2,0,12.7l-8.7-7.9c-9.2,5.6-21.7,5.7-27.9,4l-4,4.8
			c-0.7-1.3-1-10.6,0.5-15.7c2.3-7.4,12.7-12,18.6-12C80.3,79.6,86.2,80.7,90.6,87.7z"/>
		<path class="st5" d="M169,111.5c0,4.2,4.4,13.2,5.6,14.8c-1.8,1-9.8,4.2-17.2,3.2C163.7,124.2,166.8,118.3,169,111.5z"/>
		<path class="st5" d="M144,94.3c5.2,8.5,19.7,14.6,23.2,15.1c2.4-5.3,4.4-16.2-2.4-23c-11.5-11.5-24.5-5.9-25.6-2.2
			c-6.7-0.7-13.6,13.9-8.3,26.9C135.9,99.5,144,94.3,144,94.3z"/>
		<g>
			<path class="st8" d="M94.7,116.4c-0.1,0-0.2,0-0.3,0c-0.9-0.2-1.4-1-1.2-1.9c0.2-1.2,1.1-1.8,1.6-2.2c0.6-0.4,1.2-0.8,1.6-2.4
				c0.6-2.7,0.1-3.4,0-3.5c-0.6-0.7-0.5-1.7,0.2-2.2c0.7-0.6,1.7-0.5,2.2,0.2c1.1,1.3,1.3,3.4,0.6,6.2c-0.7,2.8-2,3.7-2.8,4.3
				c-0.1,0.1-0.3,0.2-0.4,0.3C96.1,115.9,95.5,116.4,94.7,116.4z"/>
		</g>
		<g>
			<path class="st8" d="M58.3,116.3c-0.7,0-1.4-0.5-1.6-1.3c0,0-0.2-0.1-0.4-0.2c-0.8-0.6-2.2-1.5-2.8-4.3c-1-4.1,0.1-5.9,1.1-6.8
				c0.7-0.5,1.7-0.4,2.2,0.3c0.5,0.7,0.4,1.7-0.3,2.2c-0.2,0.2-0.6,1.1,0,3.5c0.4,1.6,0.9,2,1.6,2.4c0.6,0.4,1.4,1,1.6,2.2
				c0.2,0.9-0.4,1.7-1.2,1.9C58.6,116.3,58.5,116.3,58.3,116.3z"/>
		</g>
		<g>
			<path class="st9" d="M76.5,136.2c-9.6,0-17.9-8.9-19.8-21.2c-0.1-0.9,0.5-1.7,1.3-1.8c0.9-0.1,1.7,0.5,1.8,1.3
				c1.6,10.7,8.6,18.5,16.6,18.5s15-7.8,16.6-18.5c0.1-0.9,0.9-1.5,1.8-1.3c0.9,0.1,1.5,0.9,1.3,1.8
				C94.4,127.3,86.1,136.2,76.5,136.2z"/>
		</g>
		<g>
			<path class="st9" d="M164.2,130.5c-0.9,0-1.6-0.7-1.6-1.5c0-0.9,0.7-1.6,1.5-1.6c3.1-0.1,5.8-0.9,7.9-1.8c-1-1.6-1.9-3.6-2.8-5.5
				c-1.8-4-2.7-7-2.7-9.3c0-0.9,0.7-1.6,1.6-1.6c0.9,0,1.6,0.7,1.6,1.6c0,1.8,0.9,4.5,2.4,8c1.1,2.4,2.3,4.9,3.4,6.5
				c0.3,0.4,0.4,0.8,0.3,1.3c-0.1,0.4-0.4,0.8-0.8,1.1C171.7,129.4,167.9,130.4,164.2,130.5C164.2,130.5,164.2,130.5,164.2,130.5z"
				/>
		</g>
		<g>
			<path class="st9" d="M135.3,130.1c-3.9,0-7.9-1-11.5-3c-0.4-0.2-0.7-0.6-0.8-1.1c-0.1-0.4,0-0.9,0.3-1.3c1.4-1.9,3.2-4.7,4.1-7.2
				c1.1-3.1,2-8.2,2-8.2c0.2-0.9,1-1.4,1.9-1.3c0.9,0.2,1.4,1,1.3,1.8c0,0.2-1,5.4-2.2,8.7c-0.8,2.2-2.2,4.6-3.5,6.5
				c2.7,1.2,5.5,1.8,8.3,1.8c0.9,0,1.6,0.7,1.6,1.6C136.9,129.4,136.2,130.1,135.3,130.1C135.4,130.1,135.3,130.1,135.3,130.1z"/>
		</g>
		<g>
			<path class="st10" d="M150,131.7c-9.6,0-17.8-8.9-19.6-21.1c-0.1-0.9,0.5-1.7,1.3-1.8c0.9-0.1,1.7,0.5,1.8,1.3
				c1.6,10.7,8.6,18.4,16.5,18.4s14.9-7.7,16.5-18.4c0.1-0.9,0.9-1.5,1.8-1.3c0.9,0.1,1.5,0.9,1.3,1.8
				C167.8,122.8,159.5,131.7,150,131.7z"/>
		</g>
		<g>
			<path class="st9" d="M132,112.7c-0.6,0-1.2-0.4-1.5-1c-3.8-9.3-1.7-19.6,2.4-25c1.9-2.5,4.1-3.9,6.4-4.1c1.1-1.7,3.6-3.2,6.7-4
				c6.7-1.7,13.8,0.3,19.1,5.4c9,8.7,7,20.9,4.7,26.1c-0.3,0.7-1,1-1.7,0.9c-4.4-0.7-21.7-6.8-27.1-18.7c-0.4-0.8,0-1.7,0.8-2.1
				c0.8-0.4,1.7,0,2.1,0.8c4.4,9.7,18.2,15.3,23.4,16.7c1.8-5,2.7-14.4-4.4-21.3c-6.4-6.2-13.4-5.3-16.1-4.6c-3.1,0.8-4.8,2.2-5,3
				c-0.2,0.7-0.9,1.2-1.7,1.1c-1.5-0.2-3.1,0.9-4.6,2.8c-2.8,3.8-4.6,10.3-3.4,16.9c1.1-2.4,3.1-5.2,6.2-7.8
				c0.7-0.6,1.7-0.4,2.2,0.2c0.6,0.7,0.4,1.7-0.2,2.2c-5.2,4.2-6.4,9.1-6.7,11c-0.1,0.7-0.7,1.3-1.4,1.4
				C132.1,112.7,132.1,112.7,132,112.7z"/>
		</g>
		<g>
			<path class="st9" d="M184.8,155.7c-0.9,0-1.6-0.7-1.6-1.6c0-8.2-6.9-14.8-18.6-17.8l-13.6,12.3c-0.6,0.5-1.5,0.5-2.1,0
				l-13.6-12.3c-2.1,0.5-4.1,1.2-5.8,2c-0.8,0.3-1.7,0-2.1-0.8c-0.3-0.8,0-1.7,0.8-2.1c2.2-0.9,4.6-1.7,7.2-2.3c0.5-0.1,1,0,1.4,0.4
				l13.2,11.9l13.2-11.9c0.4-0.4,0.9-0.5,1.4-0.4c13.7,3.3,21.9,11.1,21.9,21.1C186.3,155,185.6,155.7,184.8,155.7z"/>
		</g>
		<g>
			<path class="st9" d="M55.7,109.3c-0.2,0-0.3,0-0.5-0.1c-0.6-0.2-1.1-0.8-1.1-1.5v-8.5c0-10.6,5.6-18.1,15.5-20.6
				c7.8-1.9,18,0.1,22.1,7.6c6.9,2.2,6.9,9.3,6.8,13.2v8.2c0,0.7-0.4,1.2-1,1.5c-0.6,0.2-1.3,0.1-1.8-0.4l-7.6-8.5
				c-8.4,4.7-20.2,5.7-27.6,4l-3.6,4.5C56.6,109.1,56.1,109.3,55.7,109.3z M88.5,96.7c0.4,0,0.9,0.2,1.2,0.5l5.7,6.4v-4.1
				c0-4.9-0.3-9.1-5.2-10.3c-0.5-0.1-0.8-0.4-1-0.8c-3-6.3-11.9-8.3-18.8-6.6c-4.9,1.2-13.1,5.1-13.1,17.5v3.9l1.4-1.8
				c0.4-0.5,1.1-0.7,1.7-0.5c7,2,19.1,1,27.3-4.1C87.9,96.7,88.2,96.7,88.5,96.7z"/>
		</g>
		<g>
			<path class="st9" d="M110.3,154.4c-0.8,0-1.5-0.6-1.5-1.4c0-7.2-6.6-13-17.8-15.7c-1.5,1.9-5.8,5.9-14.4,5.9
				c-8.6,0-12.9-4-14.5-5.9c-11.1,2.7-17.8,8.5-17.8,15.7c0,0.8-0.7,1.4-1.5,1.4c-0.8,0-1.5-0.6-1.5-1.4c0-8.8,7.9-15.8,21.1-18.7
				c0.7-0.1,1.4,0.1,1.7,0.7c0.1,0.2,3.3,5.3,12.4,5.3c9.1,0,12.3-5.1,12.4-5.3c0.3-0.6,1-0.8,1.7-0.7c13.2,2.9,21.1,9.9,21.1,18.7
				C111.8,153.8,111.1,154.4,110.3,154.4z"/>
		</g>
	</g>
	<g class="st1">
		<circle class="st11" cx="111.4" cy="137.8" r="16.7"/>
		<circle class="st11" cx="98.2" cy="139" r="4.7"/>
		<circle class="st11" cx="126.4" cy="140.1" r="4.7"/>
		<path class="st9" d="M131.2,135.9c-0.6-0.5-1.5-0.7-2.1-0.7c-1.2-8.3-8.6-14.7-17.2-14.7c-8.7,0-16,6.3-17.2,14.7
			c-0.7,0-1.5,0.1-2.1,0.7c-0.4,0.3-0.9,1-0.9,2.1c0,3.7,2.7,5.6,4.1,6c2.6,6.5,9,10.8,16.2,10.8c7.2,0,13.6-4.3,16.2-10.8
			c1.4-0.5,4.1-2.4,4.1-6C132.2,136.8,131.7,136.2,131.2,135.9z M128.2,141.7c-0.1-0.1-0.2-0.2-0.3-0.2c-0.5-0.2-1.1,0.1-1.2,0.6
			c-2,6.4-7.9,10.7-14.8,10.7c-6.7,0-12.6-4.2-14.7-10.4c-0.2-0.5-0.7-0.8-1.3-0.6c-0.1,0-0.1,0.1-0.2,0.1c-0.8-0.4-2.2-1.6-2.2-3.9
			c0-0.4,0.1-0.5,0.2-0.6c0.3-0.2,1.1-0.2,1.5-0.2c0.5,0.1,1-0.2,1.1-0.7c0,0,0,0,0,0c0,0,0,0,0,0v0c0.1-0.1,0.1-0.2,0.1-0.3
			c0.8-7.8,7.4-13.6,15.4-13.6c7.9,0,14.7,6.1,15.4,13.8c0.1,0.5,0.5,0.9,1,0.9c0,0,0.1,0,0.1,0s0.1,0,0.1,0c0,0,0.1,0,0.1,0
			c0.4-0.1,1.1-0.1,1.5,0.2c0.1,0,0.2,0.1,0.2,0.6C130.2,140,129.1,141.1,128.2,141.7z"/>
		<g>
			<path class="st9" d="M109.6,121.9c-0.3,0-0.7-0.2-0.8-0.5c-0.5-0.8-2-1.6-2.9-1.8c-0.5-0.2-0.8-0.7-0.6-1.3
				c0.2-0.5,0.7-0.8,1.2-0.6c0.3,0.1,2.9,1,3.9,2.7c0.3,0.5,0.1,1.1-0.3,1.4C110,121.9,109.8,121.9,109.6,121.9z"/>
		</g>
		<g>
			<path class="st9" d="M113.6,122.5c-0.2,0-0.3-0.1-0.5-0.1c-0.5-0.3-0.6-0.9-0.3-1.4c1-1.7,3.6-2.6,3.9-2.7
				c0.5-0.2,1.1,0.1,1.2,0.6s-0.1,1.1-0.6,1.3c-0.8,0.3-2.4,1-2.9,1.8C114.3,122.3,113.9,122.5,113.6,122.5z"/>
		</g>
		<g>
			<path class="st9" d="M111.3,121.9c-0.3,0-0.7-0.2-0.8-0.5c-1-1.7-0.3-5.6-0.1-6.4c0.1-0.5,0.6-0.9,1.2-0.8
				c0.5,0.1,0.9,0.6,0.8,1.2c-0.4,1.9-0.5,4.3-0.1,5c0.3,0.5,0.1,1.1-0.3,1.4C111.7,121.9,111.5,121.9,111.3,121.9z"/>
		</g>
		<g>
			<path class="st9" d="M132.7,170.1c-0.6,0-1-0.5-1-1.1c0-5.5-4.3-9.9-11.5-12c-1,1.4-3.8,4.5-9.4,4.5s-8.4-3-9.4-4.5
				c-7.2,2.1-11.5,6.5-11.5,12c0,0.6-0.4,1.1-1,1.1s-1-0.5-1-1.1c0-6.7,5.1-12,13.7-14.2c0.4-0.1,0.9,0.1,1.1,0.5
				c0.1,0.2,2.2,4.1,8.1,4.1c5.9,0,8-3.9,8.1-4.1c0.2-0.4,0.7-0.6,1.1-0.5c8.6,2.2,13.7,7.5,13.7,14.2
				C133.7,169.7,133.2,170.1,132.7,170.1z"/>
		</g>
		<g>
			<path class="st9" d="M132.7,170.1c-0.6,0-1-0.5-1-1.1c0-5.5-4.3-9.9-11.5-12c-1,1.4-3.8,4.5-9.4,4.5s-8.4-3-9.4-4.5
				c-7.2,2.1-11.5,6.5-11.5,12c0,0.6-0.4,1.1-1,1.1s-1-0.5-1-1.1c0-6.7,5.1-12,13.7-14.2c0.4-0.1,0.9,0.1,1.1,0.5
				c0.1,0.2,2.2,4.1,8.1,4.1c5.9,0,8-3.9,8.1-4.1c0.2-0.4,0.7-0.6,1.1-0.5c8.6,2.2,13.7,7.5,13.7,14.2
				C133.7,169.7,133.2,170.1,132.7,170.1z"/>
		</g>
	</g>
	<path class="st4" d="M117.2,70.6c0,0-4.7-4.8-5-5.1c-1.2-1.2-1.8-3.6-0.2-5.3c1.2-1.2,2.7-1.1,3.8-0.7c0.8,0.3,1.3,0.9,1.7,1.3
		c0.4-0.4,0.9-1,1.7-1.3c1.1-0.4,2.6-0.5,3.8,0.7c1.8,1.8,1,4.2-0.1,5.2c-0.4,0.4-5.2,5.1-5.2,5.1l0,0.4l2.6,0
		c2.3,0,4.1-0.5,5.5-1.5c1.4-0.9,2.5-2.3,3.2-4c0.4-1,1.5-4.6-1.3-8.1s-6.6-3.3-7.2-3.3L102.8,54c-0.8,0-1.5,0.6-1.5,1.5l-0.2,18.4
		c0,4.4,3.5,8.1,8,8.1s8.1-3.5,8.1-8L117.2,70.6z"/>
</g>
<path class="st12" d="M123,54.2c0,0-4.7-4.8-5-5.1c-1.2-1.2-1.8-3.6-0.2-5.3c1.2-1.2,2.7-1.1,3.8-0.7c0.8,0.3,1.3,0.9,1.7,1.3
	c0.4-0.4,0.9-1,1.7-1.3c1.1-0.4,2.6-0.5,3.8,0.7c1.8,1.8,1,4.2-0.1,5.2c-0.4,0.4-5.2,5.1-5.2,5.1l0,0.4l2.6,0c2.3,0,4.1-0.5,5.5-1.5
	c1.4-0.9,2.5-2.3,3.2-4c0.4-1,1.5-4.6-1.3-8.1s-6.6-3.3-7.2-3.3l-17.7-0.2c-0.8,0-1.5,0.6-1.5,1.5l-0.2,18.4c0,4.4,3.5,8.1,8,8.1
	s8.1-3.5,8.1-8L123,54.2z"/>
<g class="st0">
	<g class="st1">
		<path class="st13" d="M107.6,104.1l-3.5-1.2c1-3-1.2-12.9-2.1-14.3c0,0,0.1,0.1,0.1,0.1l2.6-2.6
			C106.7,88.1,108.9,100.1,107.6,104.1z"/>
	</g>
	<g class="st1">
		<path class="st13" d="M54.1,167.5h-3.7v-14.8c0-11.9,5.5-19.1,18.4-23.9c4.6-1.7,7.4-3.1,7.4-6.9v-1.2H80v1.2
			c0,6.7-5.4,8.7-9.8,10.4c-11.5,4.3-16,10.1-16,20.4C54.1,152.7,54.1,167.5,54.1,167.5z"/>
	</g>
	<g class="st1">
		<path class="st13" d="M88.6,126.2c-8.6,0-18.5-8.8-18.5-20v-8c0-2.9,0.6-5.6,1.8-7.9c2-3.9,5.1-6.2,9-6.8c2.6-0.4,5.9,0.4,9.4,1.2
			c5.2,1.2,11.1,2.6,14.7,0.2c1.7-1.1,2.8-3.1,3.5-5.8c-2.6-0.4-4.8-1.7-7-2.9c-2.5-1.4-5.2-2.9-9.1-3.7c-9.8-1.9-13.4,3.3-13.5,3.6
			c-0.3,0.4-0.7,0.7-1.2,0.8c-3.9,0.8-6.9,2.9-9.1,6.3c-3.6,5.6-3.6,12.8-2.5,17.3l-3.6,0.9c-1.7-6.8-0.5-14.7,3-20.2
			c2.6-4,6.3-6.7,10.8-7.7c1.5-1.8,6.6-6.5,16.8-4.5c4.5,0.9,7.5,2.6,10.2,4.1c2.6,1.5,4.7,2.6,7.4,2.6c0.5,0,1.1,0.2,1.4,0.6
			c0.3,0.4,0.5,0.9,0.4,1.5c-0.7,4.9-2.6,8.3-5.5,10.3c-4.9,3.3-11.7,1.8-17.6,0.3c-3.2-0.7-6.1-1.4-8.1-1.2c-2.7,0.4-4.8,2-6.2,4.8
			c-0.9,1.8-1.4,3.9-1.4,6.2v8c0,9.1,8.1,16.4,14.8,16.4c1.2,0,2.4-0.2,3.7-0.7l1.3,3.5C91.9,125.9,90.2,126.2,88.6,126.2z"/>
	</g>
	<g class="st1">
		<path class="st13" d="M89,138.4c-6.1,0-13.3-3.1-15.4-9l3.5-1.2c1.4,4.1,7.2,6.6,12,6.6c1.7,0,3.4-0.3,5.1-0.9l1.2,3.5
			C93.2,138.1,91.1,138.4,89,138.4z"/>
	</g>
	<g class="st1">
		<path class="st13" d="M179.8,167.5h-3.7v-14.8c0-12.4-8.3-16.5-16.1-19.3c-4.1-1.5-9.8-3.5-9.8-10.1v-0.2h3.7v0.2
			c0,3.4,2.2,4.7,7.4,6.6c6,2.2,18.5,6.7,18.5,22.7L179.8,167.5L179.8,167.5z"/>
	</g>
	<g class="st1">
		<path class="st13" d="M145,126.4c-2.1,0-4.2-0.6-6.4-1.7l1.7-3.3c1.6,0.8,3.2,1.3,4.6,1.3c6.4,0,14.5-8.4,14.5-17.3l0.2-6.8
			c-2.9-1.1-9.9-4.1-14.7-9.1c-4.8,5.5-11.7,8.2-14.6,9.1v7.2h-3.7v-8.6c0-0.8,0.6-1.6,1.4-1.8c0.1,0,10.3-2.7,15.4-9.9
			c0.3-0.5,0.9-0.8,1.5-0.8c0.6,0,1.1,0.2,1.5,0.7c5.1,6.6,15.6,10,15.8,10c0.8,0.2,1.3,1,1.3,1.8l-0.3,8.1
			C163.3,116.5,153.1,126.4,145,126.4z"/>
	</g>
	<g class="st1">
		<path class="st13" d="M144.4,144.6c-2.8,0-5.6-0.7-8-2l1.8-3.2c1.9,1,4,1.6,6.2,1.6c5.7,0,10.2-3.5,12-9.3l3.5,1.1
			C157.6,140,151.7,144.6,144.4,144.6z"/>
	</g>
	<g class="st1">
		<path class="st13" d="M175.8,130.6l-3.7-0.4c0.4-3.7-1.4-6.5-5-7.9c-0.6-0.2-1-0.7-1.1-1.3c-0.1-0.6,0.1-1.2,0.5-1.7
			c1.7-1.8,2.1-4.7,1.7-6.9c-0.2-1-0.3-2.2-0.4-3.4c-0.1-1.4-0.3-2.9-0.5-3.9c-0.8-3.2-0.5-5.3-0.2-7.4c0.2-1.7,0.5-3.5,0.2-6.4
			c-0.5-3.9-2.7-9.3-7.4-12.8c-4-2.9-9-3.9-14.8-2.9c-0.3,0.1-0.6,0.1-0.9,0c-5.7-1.1-10.6-0.1-14.5,2.8c-4.7,3.5-6.9,9.1-7.4,12.9
			c-0.3,2.9-0.1,4.7,0.2,6.4c0.2,1.2,0.3,2.4,0.3,3.8l-3.7-0.1c0-1.1-0.1-2.1-0.3-3.2c-0.3-1.9-0.6-4-0.2-7.3
			c0.6-4.7,3.2-11.2,8.9-15.4c4.6-3.4,10.5-4.6,17.1-3.5c6.8-1.1,12.8,0.1,17.6,3.6c5.7,4.2,8.3,10.7,8.9,15.3
			c0.4,3.3,0.1,5.5-0.2,7.3c-0.3,1.9-0.5,3.4,0.1,6c0.3,1.3,0.5,2.9,0.6,4.4c0.1,1.2,0.2,2.2,0.4,3.1c0.6,2.9,0.1,5.9-1.2,8.2
			C174.3,122.2,176.3,126.1,175.8,130.6z"/>
	</g>
	<g class="st1">
		<path class="st13" d="M136.6,131.5l-3.6-0.6c2-12-5.3-18.2-10-20c-5.8-2.2-13.1-2.2-15.3,1.6c-0.3,0.5-0.8,0.8-1.3,0.9
			c-5.9,0.8-7.2,8.9-7.2,15.6h-3.7c0-13.9,5-18.1,9.5-19.1c3.7-5.1,12.4-5.2,19.3-2.5C131.9,110.4,138.6,118.9,136.6,131.5z"/>
	</g>
	<g class="st1">
		<path class="st13" d="M99.8,162.1l-1.6-3.4c1.2-0.5,2.4-1.1,3.8-1.6c4.4-1.6,6.2-2.7,6.2-5.5h3.7c0,5.9-5,7.7-8.6,9
			C102,161.2,100.8,161.6,99.8,162.1z"/>
	</g>
	<g class="st1">
		<path class="st13" d="M147.7,177.1H144c0-8.4-3.7-12.8-13.6-16.4c-3.6-1.3-8.6-3.1-8.6-8.9v-0.3h3.7v0.3c0,2.8,1.8,3.9,6.1,5.5
			C143.1,161.4,147.7,167.2,147.7,177.1z"/>
	</g>
	<g class="st1">
		<path class="st13" d="M116.9,154.6c-7.4,0-16-7.5-16-17.1v-8.7c0-5.2,3.6-10.8,8.9-10.8c0.4,0,0.7,0.1,1,0.3
			c0.1,0.1,12.4,8.1,22.9,6.7l0.5,3.7c-10.6,1.5-22.2-5.3-24.9-6.9c-2.8,0.4-4.8,3.9-4.8,7.1v8.7c0,7.2,6.8,13.4,12.3,13.4
			c5.5,0,12.3-6.2,12.3-13.4V133h3.7v4.5C132.9,147.1,124.3,154.6,116.9,154.6z"/>
	</g>
	<g class="st1">
		<path class="st13" d="M116.7,164.9c-4.8,0-9.2-2.8-10.8-6.8l3.4-1.4c1.1,2.7,4,4.5,7.3,4.5s6.3-1.8,7.3-4.5l3.4,1.4
			C125.9,162.2,121.5,164.9,116.7,164.9z"/>
	</g>
</g>
<path class="st12" d="M88.1,105.7c0,0-4.2-4.3-4.4-4.5c-1-1-1.6-3.2-0.1-4.7c1-1.1,2.4-1,3.4-0.6c0.7,0.3,1.1,0.8,1.5,1.2
	c0.4-0.4,0.8-0.8,1.5-1.1c1-0.4,2.3-0.4,3.3,0.7c1.6,1.6,0.9,3.7-0.1,4.6c-0.4,0.4-4.7,4.6-4.7,4.6l0,0.4l2.3,0
	c2.1,0,3.7-0.4,4.9-1.3c1.2-0.8,2.2-2,2.8-3.6c0.3-0.9,1.3-4-1.1-7.2c-2.5-3.2-5.9-2.9-6.3-2.9l-15.7-0.1c-0.7,0-1.3,0.5-1.3,1.3
	l-0.1,16.3c0,3.9,3.1,7.1,7.1,7.2s7.1-3.1,7.2-7.1L88.1,105.7z"/>
<g>
	<g>
		<path class="st9" d="M62,142.1c-0.8,0-1.4-0.1-1.4-0.1c-0.6-0.1-1.1-0.4-1.3-1c-0.2-0.6-0.1-1.2,0.3-1.6c0.4-0.4,1.6-2,2.2-8.2h-7
			c-2.6,0-4.8-2.1-4.8-4.8V81.4c0-2.6,2.1-4.8,4.8-4.8h65.9c2.6,0,4.8,2.1,4.8,4.8v45.2c0,2.6-2.1,4.8-4.8,4.8H81
			C76.3,141.4,65.3,142.1,62,142.1z M54.8,79.6c-1,0-1.7,0.8-1.7,1.7v45.2c0,1,0.8,1.7,1.7,1.7h8.7c0.4,0,0.8,0.2,1.1,0.5
			c0.3,0.3,0.4,0.7,0.4,1.1c-0.4,4.7-1.1,7.5-1.7,9.2c4.3-0.2,12.1-1.9,15.3-9.9c0.2-0.6,0.8-0.9,1.4-0.9h40.7c1,0,1.8-0.8,1.8-1.7
			V81.4c0-1-0.8-1.7-1.8-1.7L54.8,79.6L54.8,79.6z"/>
	</g>
	<rect x="103.6" y="94.8" class="st11" width="73.1" height="49"/>
	<g>
		<path class="st9" d="M147.3,146.8h-39.7c-2.6,0-4.8-2.1-4.8-4.8V96.9c0-2.6,2.1-4.8,4.8-4.8h65.9c2.6,0,4.8,2.1,4.8,4.8V142
			c0,2.6-2.1,4.8-4.8,4.8h-7c0.7,6.2,1.9,7.9,2.2,8.2c0.4,0.4,0.6,1,0.4,1.6c-0.2,0.6-0.7,0.9-1.3,1c-0.1,0-0.6,0.1-1.4,0.1
			C163,157.6,152,156.8,147.3,146.8z M107.6,95.1c-1,0-1.8,0.8-1.8,1.7V142c0,1,0.8,1.7,1.8,1.7h40.7c0.6,0,1.2,0.4,1.4,0.9
			c3.2,8,11,9.6,15.3,9.9c-0.6-1.7-1.3-4.5-1.7-9.2c0-0.4,0.1-0.8,0.4-1.1s0.7-0.5,1.1-0.5h8.7c1,0,1.7-0.8,1.7-1.7V96.9
			c0-1-0.8-1.7-1.7-1.7C173.5,95.1,107.6,95.1,107.6,95.1z"/>
	</g>
	<g>
		<path class="st14" d="M104.4,92.8H66.7c-0.8,0-1.5-0.5-1.5-1.2c0-0.6,0.7-1.2,1.5-1.2h37.7c0.8,0,1.5,0.5,1.5,1.2
			S105.2,92.8,104.4,92.8z"/>
	</g>
	<g>
		<path class="st14" d="M104.4,104.2H66.7c-0.8,0-1.5-0.5-1.5-1.2c0-0.6,0.7-1.2,1.5-1.2h37.7c0.8,0,1.5,0.5,1.5,1.2
			S105.2,104.2,104.4,104.2z"/>
	</g>
	<g>
		<path class="st14" d="M104.4,115.6H66.7c-0.8,0-1.5-0.5-1.5-1.2c0-0.6,0.7-1.2,1.5-1.2h37.7c0.8,0,1.5,0.5,1.5,1.2
			S105.2,115.6,104.4,115.6z"/>
	</g>
</g>
<g>
	<path class="st10" d="M159.9,112.6c-0.6-6.2-5-10.8-10.5-10.8c-3.7,0-7.1,3.2-9,6.4c-1.9-3.2-5.1-6.4-8.7-6.4
		c-5.5,0-9.9,4.5-10.5,10.8c0,0.3-0.2,1.7,0.3,4.1c0.8,3.4,2.7,6.5,5.4,9l13.5,12.3l13.8-12.3c2.7-2.5,4.6-5.6,5.4-9
		C160.1,114.3,160,112.9,159.9,112.6z"/>
</g>
</svg>
