<?xml version="1.0" encoding="utf-8"?>
<!-- Generator: Adobe Illustrator 28.1.0, SVG Export Plug-In . SVG Version: 6.00 Build 0)  -->
<svg version="1.1" xmlns="http://www.w3.org/2000/svg" xmlns:xlink="http://www.w3.org/1999/xlink" x="0px" y="0px"
	 viewBox="0 0 150 150" style="enable-background:new 0 0 150 150;" xml:space="preserve">
<style type="text/css">
	.st0{display:none;}
	.st1{display:inline;opacity:0.3;}
	.st2{fill:#201D1D;}
	.st3{fill:none;stroke:#201D1D;stroke-width:3.6;stroke-linejoin:round;stroke-miterlimit:10;}
	.st4{fill:none;stroke:#E4007F;stroke-width:0.75;stroke-miterlimit:10;}
	.st5{opacity:0.41;}
	.st6{fill:#221F20;}
</style>
<g id="레이어_2" class="st0">
</g>
<g id="레이어_1">
	<g>
		<g>
			<path class="st2" d="M29.81,68.53c-1.23,0.86-1.74,1.73-1.86,1.89l0.03,0c-0.84,1.24-1.34,2.69-1.38,4.22
				c-0.05,2.15,0.74,4.18,2.25,5.71L45.2,97.04l2.92-2.86L31.77,77.5c-0.72-0.74-1.11-1.72-1.08-2.75c0.03-1.04,0.46-1.99,1.22-2.7
				c1.51-1.4,3.9-1.32,5.31,0.16c13.05,13.69,14.41,14.33,15,14.61c3.6,1.68,6.78,3.51,9.44,5.43c4.7,3.4,7.51,8.96,7.51,14.87
				v17.03h4.09v-17.03c0-7.22-3.44-14.01-9.2-18.18c-2.87-2.08-6.27-4.04-10.06-5.81c-0.58-0.33-4.14-3.59-13.81-13.74
				c-1-1.05-2.25-1.76-3.58-2.13l0.01,0c-0.02-0.01-0.05-0.01-0.07-0.02c-0.06-0.02-0.12-0.03-0.18-0.04
				c-0.23-0.06-0.45-0.1-0.68-0.14c-0.02,0-0.05-0.01-0.07-0.01c-0.59-0.09-1.15-0.1-1.68-0.06h0c-2.29,0.18-3.85,1.35-4.13,1.53
				L29.81,68.53z"/>
			<path class="st2" d="M43.79,116.72c0.52,0.51,0.8,1.2,0.8,1.93v5.5h4.09v-5.5c0-1.83-0.71-3.55-2.01-4.84
				c-5.64-5.6-24.34-24.49-27.97-32.64c-3.28-7.35-0.01-32.49,1.07-40.02c0.3-2.1,2.14-3.69,4.27-3.69c2.38,0,4.31,1.94,4.31,4.32
				l0.09,19.97h4.09l-0.09-19.98c0-4.63-3.77-8.4-8.4-8.4c-4.15,0-7.73,3.09-8.31,7.2C13.94,53,11.47,75.02,14.97,82.84
				C18.89,91.64,38.02,110.99,43.79,116.72z"/>
		</g>
		<g>
			<path class="st2" d="M82.34,124.15v-17.03c0-5.91,2.81-11.47,7.51-14.87c2.66-1.92,5.83-3.75,9.44-5.43
				c0.59-0.27,1.95-0.91,15-14.61c1.42-1.49,3.8-1.56,5.31-0.16c0.76,0.7,1.19,1.66,1.22,2.7c0.03,1.03-0.36,2.01-1.08,2.75
				l-16.35,16.68l2.92,2.86l16.35-16.68c1.5-1.54,2.3-3.57,2.25-5.71c-0.04-1.53-0.53-2.98-1.38-4.22l0.03,0
				c-0.12-0.17-0.63-1.04-1.86-1.89l0.01,0c-0.27-0.18-1.83-1.35-4.13-1.53h0c-0.52-0.04-1.08-0.03-1.68,0.06
				c-0.02,0-0.05,0.01-0.07,0.01c-0.22,0.03-0.45,0.08-0.68,0.14c-0.06,0.01-0.12,0.03-0.18,0.04c-0.02,0.01-0.05,0.01-0.07,0.02
				l0.01,0c-1.34,0.37-2.58,1.08-3.58,2.13c-9.67,10.15-13.23,13.41-13.81,13.74c-3.79,1.77-7.19,3.73-10.06,5.81
				c-5.76,4.17-9.2,10.97-9.2,18.18v17.03H82.34z"/>
			<path class="st2" d="M135.78,40.58c-0.59-4.1-4.16-7.2-8.31-7.2c-4.63,0-8.4,3.77-8.4,8.4l-0.09,19.98h4.09l0.09-19.97
				c0-2.39,1.94-4.32,4.31-4.32c2.13,0,3.97,1.59,4.27,3.69c1.08,7.53,4.35,32.68,1.07,40.02c-3.63,8.15-22.33,27.04-27.97,32.64
				c-1.3,1.29-2.01,3-2.01,4.84v5.5h4.09v-5.5c0-0.73,0.29-1.42,0.8-1.93c5.77-5.72,24.91-25.08,28.83-33.87
				C140.03,75.02,137.56,53,135.78,40.58z"/>
		</g>
		<path class="st2" d="M89.97,40.77c-5.31-2.34-11.28-0.1-14.22,5c-2.94-5.1-8.9-7.34-14.22-5c-5.95,2.62-9.22,8.88-6.4,16.43
			c4.38,11.71,20.35,21.41,20.61,21.57c0,0,0,0.01,0,0.01s0.01,0,0.01,0c0,0,0.01,0,0.01,0s0-0.01,0-0.01
			c0.26-0.16,16.23-9.86,20.61-21.57C99.19,49.64,95.92,43.39,89.97,40.77z"/>
	</g>
</g>
</svg>
