<svg xmlns="http://www.w3.org/2000/svg" width="725.67px" height="45.97px" viewBox="0 0 725.67 45.97">
	<path d="M6.53,6.49C7.8,4.87,9.9,4.05,12.78,4.05c4.8,0,7.29,2.1,7.62,6.43a1.15,1.15,0,0,0,.38.87,1.93,1.93,0,0,0,1,.19h1.87a1.55,1.55,0,0,0,1-.26,1.19,1.19,0,0,0,.3-.93,10,10,0,0,0-2.54-7C20.55,1.12,17.37,0,13,0A14.61,14.61,0,0,0,5.5,1.8,10.62,10.62,0,0,0,1.08,7.13a14.39,14.39,0,0,0-.82,3.29A35.71,35.71,0,0,0,0,15.16v8.31a34.5,34.5,0,0,0,.26,4.66,15.36,15.36,0,0,0,.82,3.32A10,10,0,0,0,5.51,36.5a14.66,14.66,0,0,0,7.12,1.62c4.16,0,7.44-1.14,9.73-3.41a8.46,8.46,0,0,0,1.95-3.11,11.19,11.19,0,0,0,.7-4,1.19,1.19,0,0,0-.3-.93,1.55,1.55,0,0,0-1-.26H21.9a1.86,1.86,0,0,0-1,.19h0a1.12,1.12,0,0,0-.37.88c-.4,4.39-2.94,6.52-7.78,6.52-2.85,0-4.93-.82-6.2-2.44s-1.92-4.34-1.92-8v-9C4.61,10.85,5.26,8.13,6.53,6.49Z" style="fill:#e65550"/>
	<path d="M41,9.62c-3.53,0-6.26,1.13-8.12,3.35S30,18.38,30,22.5v3.8C30,30,31,32.94,32.86,35S37.44,38,40.9,38a13.85,13.85,0,0,0,4.82-.82,8.68,8.68,0,0,0,3.5-2.29,9.3,9.3,0,0,0,1.3-2A4.51,4.51,0,0,0,51.1,31c0-.47-.1-.74-.31-.88a2.09,2.09,0,0,0-1-.16H47.94a1.6,1.6,0,0,0-.87.17c-.11.08-.26.24-.51.83-.91,2.12-2.71,3.15-5.51,3.15-4.41,0-6.55-2.65-6.55-8.12v-.74H50.32a1.4,1.4,0,0,0,1-.26,1.24,1.24,0,0,0,.31-1V21.44C51.61,13.6,48,9.62,41,9.62Zm0,3.59a5.38,5.38,0,0,1,4.65,2c1,1.33,1.48,3.44,1.5,6.27H34.5C34.59,15.93,36.7,13.21,41,13.21Z" style="fill:#e65550"/>
	<path d="M60.24.81H58.36a1.49,1.49,0,0,0-1,.26,1.24,1.24,0,0,0-.31,1v34a1.24,1.24,0,0,0,.31,1,1.42,1.42,0,0,0,1,.26h1.88a1.4,1.4,0,0,0,1-.26,1.24,1.24,0,0,0,.31-1v-34a1.24,1.24,0,0,0-.31-1A1.46,1.46,0,0,0,60.24.81Z" style="fill:#e65550"/>
	<path d="M78,9.62c-3.53,0-6.26,1.13-8.12,3.35s-2.79,5.41-2.79,9.53v3.8c0,3.72.95,6.64,2.82,8.66S74.52,38,78,38a13.76,13.76,0,0,0,4.81-.82,8.65,8.65,0,0,0,3.51-2.29,9.3,9.3,0,0,0,1.3-2A4.51,4.51,0,0,0,88.18,31c0-.47-.1-.74-.31-.88a2.11,2.11,0,0,0-1-.16H85a1.6,1.6,0,0,0-.87.17c-.11.08-.26.24-.51.83-.91,2.12-2.71,3.15-5.51,3.15-4.41,0-6.55-2.65-6.55-8.12v-.74H87.4a1.42,1.42,0,0,0,1-.26,1.24,1.24,0,0,0,.31-1V21.44C88.69,13.6,85.1,9.62,78,9.62Zm0,3.59a5.38,5.38,0,0,1,4.65,2c1,1.33,1.48,3.44,1.5,6.27H71.58C71.67,15.93,73.78,13.21,78,13.21Z" style="fill:#e65550"/>
	<path d="M105.49,9.62a9.53,9.53,0,0,0-7.27,2.76V2.05a1.27,1.27,0,0,0-.3-1,1.45,1.45,0,0,0-1-.26H95.06a1.51,1.51,0,0,0-1,.26h0a1.27,1.27,0,0,0-.3,1V27.26c0,3.43,1,6.11,2.93,8s4.71,2.8,8.23,2.8,6.29-1,8.22-3S116,30.13,116,26.5V20.88c0-3.62-.91-6.43-2.71-8.35S108.88,9.62,105.49,9.62Zm-.61,3.9c4.51,0,6.71,2.67,6.71,8.17V26c0,5.5-2.18,8.17-6.66,8.17S98.22,31.45,98.22,26V21.69a9.5,9.5,0,0,1,1.7-6.1A6,6,0,0,1,104.88,13.52Z" style="fill:#e65550"/>
	<path d="M133.82,10.33h-.65a7.78,7.78,0,0,0-4.51,1.38h0a8.51,8.51,0,0,0-2.56,2.75V11.57a1.27,1.27,0,0,0-.3-1,1.45,1.45,0,0,0-1-.26H123a1.45,1.45,0,0,0-1,.26,1.27,1.27,0,0,0-.3,1v24.5a1.27,1.27,0,0,0,.3,1,1.45,1.45,0,0,0,1,.26h1.87a1.45,1.45,0,0,0,1-.26,1.27,1.27,0,0,0,.3-1V23.16a12.21,12.21,0,0,1,.45-3.4A8.88,8.88,0,0,1,127.93,17a6.08,6.08,0,0,1,2-1.78,5.27,5.27,0,0,1,2.6-.63h1.31c.45,0,.75-.09.89-.29a1.57,1.57,0,0,0,.2-.95V11.57a1.57,1.57,0,0,0-.2-1C134.56,10.42,134.28,10.33,133.82,10.33Z" style="fill:#e65550"/>
	<path d="M148.56,9.62a14.38,14.38,0,0,0-5.05.77,8.46,8.46,0,0,0-3.38,2.35,7.64,7.64,0,0,0-1,1.59,3.71,3.71,0,0,0-.43,1.64,1.19,1.19,0,0,0,.3.93,1.55,1.55,0,0,0,1,.26h1.82a1.3,1.3,0,0,0,.93-.22,2.86,2.86,0,0,0,.45-.78,4.39,4.39,0,0,1,1.85-2.24,7.42,7.42,0,0,1,3.51-.66,5.8,5.8,0,0,1,4.07,1.18,5.21,5.21,0,0,1,1.22,3.86V21c-1-.12-1.93-.21-2.9-.27s-1.92-.1-2.59-.1c-3.72,0-6.49.71-8.25,2.12s-2.67,3.7-2.67,6.76c0,2.9.86,5,2.55,6.33s4.28,2,7.76,2h.76c3.38,0,5.89-.76,7.45-2.27s2.34-3.85,2.34-7V18.2c0-3-.77-5.24-2.3-6.57S152,9.62,148.56,9.62ZM148.51,34h-.46c-2.26,0-3.86-.36-4.74-1.06A4.14,4.14,0,0,1,142,29.49a4.76,4.76,0,0,1,1.41-3.87c1-.77,2.72-1.17,5.25-1.17.6,0,1.4.05,2.38.13s1.87.18,2.81.3v3.24a6.64,6.64,0,0,1-1.24,4.48C151.8,33.51,150.42,34,148.51,34Z" style="fill:#e65550"/>
	<path d="M176.14,33.31h-2.38a2.47,2.47,0,0,1-2.07-.79,4.81,4.81,0,0,1-.63-2.83V14.13h5a1.06,1.06,0,0,0,.89-.3,1.56,1.56,0,0,0,.2-.94V11.57a1.57,1.57,0,0,0-.2-1c-.15-.2-.43-.29-.89-.29h-5V4.13a1.28,1.28,0,0,0-.31-1,1.51,1.51,0,0,0-1-.25h-1.87a1.45,1.45,0,0,0-1,.26,1.27,1.27,0,0,0-.3,1v6.2h-3.06c-.46,0-.75.09-.89.29a1.57,1.57,0,0,0-.2,1v1.32a1.56,1.56,0,0,0,.2.94,1,1,0,0,0,.89.3h3.06V30.35c0,2.38.55,4.15,1.63,5.27h0c1.09,1.12,2.83,1.69,5.18,1.69h2.73c.45,0,.75-.09.89-.29a1.57,1.57,0,0,0,.2-1V34.55a1.56,1.56,0,0,0-.2-.94A1,1,0,0,0,176.14,33.31Z" style="fill:#e65550"/>
	<path d="M191.86,9.62c-3.53,0-6.26,1.13-8.12,3.35S181,18.38,181,22.5v3.8c0,3.72,1,6.64,2.82,8.66s4.58,3.06,8,3.06a13.76,13.76,0,0,0,4.81-.82,8.79,8.79,0,0,0,3.51-2.29,9.3,9.3,0,0,0,1.3-2A4.51,4.51,0,0,0,202,31c0-.47-.1-.74-.31-.88a2.11,2.11,0,0,0-1-.16h-1.82a1.6,1.6,0,0,0-.87.17c-.11.08-.26.24-.51.83-.91,2.12-2.71,3.15-5.51,3.15-4.41,0-6.56-2.65-6.56-8.12v-.74h15.83a1.42,1.42,0,0,0,1-.26,1.24,1.24,0,0,0,.31-1V21.44C202.52,13.6,198.93,9.62,191.86,9.62Zm0,3.59a5.38,5.38,0,0,1,4.65,2c1,1.33,1.48,3.44,1.5,6.27h-12.6C185.5,15.93,187.61,13.21,191.86,13.21Z" style="fill:#e65550"/>
	<path d="M231.91,9.62a9.49,9.49,0,0,0-7.26,2.76V2.05a1.24,1.24,0,0,0-.31-1,1.45,1.45,0,0,0-1-.26h-1.87a1.51,1.51,0,0,0-1,.26h0a1.27,1.27,0,0,0-.3,1V27.26c0,3.43,1,6.11,2.93,8s4.71,2.8,8.23,2.8,6.29-1,8.22-3,2.9-4.86,2.9-8.49V20.88c0-3.62-.92-6.43-2.72-8.35S235.3,9.62,231.91,9.62Zm-.61,3.9c4.52,0,6.71,2.67,6.71,8.17V26c0,5.5-2.18,8.17-6.66,8.17s-6.7-2.67-6.7-8.17V21.69a9.56,9.56,0,0,1,1.69-6.1A6,6,0,0,1,231.3,13.52Z" style="fill:#e65550"/>
	<path d="M258.33,9.62a14.32,14.32,0,0,0-5,.77,8.32,8.32,0,0,0-3.38,2.35,7.3,7.3,0,0,0-1,1.59,3.86,3.86,0,0,0-.43,1.64,1.16,1.16,0,0,0,.31.93,1.5,1.5,0,0,0,1,.26h1.83c.48,0,.77-.06.92-.22a2.37,2.37,0,0,0,.45-.78,4.39,4.39,0,0,1,1.85-2.24,7.42,7.42,0,0,1,3.51-.66,5.79,5.79,0,0,1,4.07,1.18,5.21,5.21,0,0,1,1.22,3.86V21c-.95-.12-1.93-.21-2.89-.27s-1.92-.1-2.6-.1c-3.72,0-6.49.71-8.25,2.12s-2.66,3.7-2.66,6.76c0,2.9.85,5,2.54,6.33s4.28,2,7.76,2h.76c3.39,0,5.89-.76,7.45-2.27s2.35-3.85,2.35-7V18.2c0-3-.78-5.24-2.31-6.57S261.75,9.62,258.33,9.62ZM258.28,34h-.46c-2.26,0-3.86-.36-4.74-1.06a4.14,4.14,0,0,1-1.31-3.42,4.76,4.76,0,0,1,1.41-3.87c.95-.77,2.72-1.17,5.25-1.17.6,0,1.41.05,2.39.13s1.87.18,2.8.3v3.24c0,2.06-.41,3.57-1.23,4.48S260.2,34,258.28,34Z" style="fill:#e65550"/>
	<path d="M285.55,9.62a9.49,9.49,0,0,0-7.26,2.76V2.05a1.24,1.24,0,0,0-.31-1,1.44,1.44,0,0,0-1-.26h-1.88a1.48,1.48,0,0,0-1,.26h0a1.24,1.24,0,0,0-.31,1V27.26c0,3.43,1,6.11,2.93,8S281.47,38,285,38s6.29-1,8.22-3,2.9-4.86,2.9-8.49V20.88c0-3.62-.92-6.43-2.72-8.35S288.94,9.62,285.55,9.62Zm-.61,3.9c4.52,0,6.71,2.67,6.71,8.17V26c0,5.5-2.18,8.17-6.66,8.17s-6.7-2.67-6.7-8.17V21.69a9.56,9.56,0,0,1,1.69-6.1A6,6,0,0,1,284.94,13.52Z" style="fill:#e65550"/>
	<path d="M304.82,10.33h-1.88a1.42,1.42,0,0,0-1,.26,1.24,1.24,0,0,0-.31,1v24.5a1.24,1.24,0,0,0,.31,1,1.42,1.42,0,0,0,1,.26h1.88a1.45,1.45,0,0,0,1-.26,1.27,1.27,0,0,0,.3-1V11.57a1.27,1.27,0,0,0-.3-1A1.45,1.45,0,0,0,304.82,10.33Z" style="fill:#e65550"/>
	<path d="M303.91.3a2.91,2.91,0,0,0-2,.67,2.27,2.27,0,0,0-.76,1.79v.81a2.33,2.33,0,0,0,.76,1.84,2.91,2.91,0,0,0,2,.67A3.08,3.08,0,0,0,306,5.41a2.32,2.32,0,0,0,.79-1.84V2.76A2.25,2.25,0,0,0,306,1,3.08,3.08,0,0,0,303.91.3Z" style="fill:#e65550"/>
	<path d="M322.41,9.62c-3.53,0-6.27,1.13-8.13,3.35s-2.78,5.41-2.78,9.53v3.8c0,3.72.95,6.64,2.82,8.66s4.58,3.06,8,3.06a13.76,13.76,0,0,0,4.81-.82,8.79,8.79,0,0,0,3.51-2.29,9.7,9.7,0,0,0,1.3-2,4.51,4.51,0,0,0,.58-1.92c0-.47-.1-.74-.31-.88a2.14,2.14,0,0,0-1-.16h-1.83a1.56,1.56,0,0,0-.86.17c-.11.08-.26.24-.51.83-.91,2.12-2.72,3.15-5.51,3.15-4.41,0-6.56-2.65-6.56-8.12v-.74h15.82a1.45,1.45,0,0,0,1-.26,1.24,1.24,0,0,0,.31-1V21.44C333.07,13.6,329.48,9.62,322.41,9.62Zm0,3.59a5.39,5.39,0,0,1,4.65,2c1,1.33,1.47,3.44,1.5,6.27H316C316,15.93,318.16,13.21,322.41,13.21Z" style="fill:#e65550"/>
	<path d="M351.45,22.33l-4.15-1.06a16.16,16.16,0,0,1-2.43-.75,5.87,5.87,0,0,1-1.53-.87,2.8,2.8,0,0,1-.8-1,3.76,3.76,0,0,1-.23-1.38,3.56,3.56,0,0,1,1.3-3,6,6,0,0,1,3.79-1.07c3.58,0,5.51,1.18,5.9,3.61a1.3,1.3,0,0,0,.39.85,1.68,1.68,0,0,0,1,.2h1.46a1.53,1.53,0,0,0,1-.26,1.16,1.16,0,0,0,.31-.93,6.13,6.13,0,0,0-1.89-4.46c-1.62-1.72-4.27-2.6-7.86-2.6a11,11,0,0,0-7.08,2.1,7,7,0,0,0-2.62,5.72v.25a6.61,6.61,0,0,0,1.53,4.54,9.58,9.58,0,0,0,4.72,2.57L348.81,26a7.37,7.37,0,0,1,3.46,1.68,4,4,0,0,1,1,2.85c0,2.61-1.81,3.88-5.54,3.88a8.18,8.18,0,0,1-4.23-.88,4.17,4.17,0,0,1-1.82-2.78,1.25,1.25,0,0,0-.43-.86,1.77,1.77,0,0,0-1-.19h-1.47a1.55,1.55,0,0,0-1,.26,1.19,1.19,0,0,0-.3.93,6.2,6.2,0,0,0,2,4.62h0c1.79,1.69,4.59,2.54,8.31,2.54,6.57,0,9.9-2.63,9.9-7.82V30C357.7,25.93,355.6,23.37,351.45,22.33Z" style="fill:#e65550"/>
	<path d="M386.94,33.31h-2.38a2.46,2.46,0,0,1-2.07-.79,4.8,4.8,0,0,1-.64-2.83V14.13h5a1.06,1.06,0,0,0,.89-.3,1.64,1.64,0,0,0,.2-.94V11.57a1.65,1.65,0,0,0-.2-1c-.15-.2-.43-.29-.89-.29h-5V4.13a1.32,1.32,0,0,0-.3-1,1.51,1.51,0,0,0-1-.25h-1.87a1.45,1.45,0,0,0-1,.26,1.27,1.27,0,0,0-.3,1v6.2h-3.07c-.46,0-.74.09-.89.29a1.67,1.67,0,0,0-.19,1v1.32a1.65,1.65,0,0,0,.19.94,1.06,1.06,0,0,0,.89.3h3.07V30.35c0,2.38.55,4.15,1.63,5.27h0c1.09,1.12,2.83,1.69,5.18,1.69h2.73a1.06,1.06,0,0,0,.89-.29,1.57,1.57,0,0,0,.2-1V34.55a1.56,1.56,0,0,0-.2-.94A1.06,1.06,0,0,0,386.94,33.31Z" style="fill:#e65550"/>
	<path d="M405,9.62a10.8,10.8,0,0,0-4.5.91,9.26,9.26,0,0,0-3,2.1V2.05a1.27,1.27,0,0,0-.3-1,1.51,1.51,0,0,0-1-.26h-1.87a1.51,1.51,0,0,0-1,.26,1.27,1.27,0,0,0-.3,1v34a1.27,1.27,0,0,0,.3,1,1.45,1.45,0,0,0,1,.26h1.87a1.45,1.45,0,0,0,1-.26,1.27,1.27,0,0,0,.3-1V20.53a7.21,7.21,0,0,1,1.74-5,6.09,6.09,0,0,1,4.67-1.87A5.52,5.52,0,0,1,408.15,15a6.68,6.68,0,0,1,1.31,4.58V36.07a1.24,1.24,0,0,0,.31,1,1.42,1.42,0,0,0,1,.26h1.88a1.42,1.42,0,0,0,1-.26,1.24,1.24,0,0,0,.31-1V18.76c0-3-.77-5.24-2.3-6.79S407.87,9.62,405,9.62Z" style="fill:#e65550"/>
	<path d="M430.29,9.62c-3.53,0-6.27,1.13-8.13,3.35s-2.78,5.41-2.78,9.53v3.8c0,3.72.95,6.64,2.82,8.66s4.58,3.06,8,3.06a13.76,13.76,0,0,0,4.81-.82,8.79,8.79,0,0,0,3.51-2.29,9.7,9.7,0,0,0,1.3-2,4.51,4.51,0,0,0,.58-1.92c0-.47-.1-.74-.31-.88a2.14,2.14,0,0,0-1-.16h-1.83a1.56,1.56,0,0,0-.86.17c-.11.08-.26.24-.51.83-.91,2.12-2.72,3.15-5.51,3.15-4.41,0-6.56-2.65-6.56-8.12v-.74h15.82a1.45,1.45,0,0,0,1-.26,1.24,1.24,0,0,0,.31-1V21.44C441,13.6,437.36,9.62,430.29,9.62Zm0,3.59a5.39,5.39,0,0,1,4.65,2c1,1.33,1.47,3.44,1.5,6.27H423.83C423.92,15.93,426,13.21,430.29,13.21Z" style="fill:#e65550"/>
	<path d="M490,10.33h-2.07a1.29,1.29,0,0,0-1,.29,2.06,2.06,0,0,0-.44.94l-5.4,21.07-5.24-20a1.73,1.73,0,0,0-.54-1h0a1.67,1.67,0,0,0-1-.27h-2.43a1.65,1.65,0,0,0-1,.27,1.67,1.67,0,0,0-.54,1l-5.05,20-5.6-21.08a2.2,2.2,0,0,0-.49-1,1.28,1.28,0,0,0-.89-.26h-2.13c-.9,0-1,.52-1,.83a2.37,2.37,0,0,0,.16.72L462,36a2,2,0,0,0,.55,1,1.51,1.51,0,0,0,1,.28h3.35a1.62,1.62,0,0,0,1-.27,1.67,1.67,0,0,0,.54-1l4.69-18.52L477.76,36a1.73,1.73,0,0,0,.54,1,1.65,1.65,0,0,0,1,.27h3.34a1.47,1.47,0,0,0,1-.28,2,2,0,0,0,.56-1l6.68-24.14a2.92,2.92,0,0,0,.16-.73C491,10.85,490.89,10.33,490,10.33Z" style="fill:#e65550"/>
	<path d="M504.42,9.62a14.38,14.38,0,0,0-5.05.77A8.46,8.46,0,0,0,496,12.74a6.92,6.92,0,0,0-1,1.59,3.71,3.71,0,0,0-.43,1.64,1.19,1.19,0,0,0,.3.93,1.55,1.55,0,0,0,1,.26h1.82c.49,0,.77-.06.92-.22a2.49,2.49,0,0,0,.46-.78,4.39,4.39,0,0,1,1.85-2.24,7.39,7.39,0,0,1,3.51-.66,5.77,5.77,0,0,1,4.06,1.18,5.17,5.17,0,0,1,1.23,3.86V21c-1-.12-1.93-.21-2.9-.27s-1.92-.1-2.6-.1c-3.71,0-6.49.71-8.24,2.12s-2.67,3.7-2.67,6.76c0,2.9.86,5,2.55,6.33s4.28,2,7.76,2h.75c3.39,0,5.9-.76,7.45-2.27s2.35-3.85,2.35-7V18.2c0-3-.77-5.24-2.3-6.57S507.83,9.62,504.42,9.62ZM504.36,34h-.45c-2.27,0-3.86-.36-4.74-1.06a4.14,4.14,0,0,1-1.31-3.42,4.72,4.72,0,0,1,1.41-3.87c1-.77,2.71-1.17,5.25-1.17.6,0,1.4.05,2.38.13s1.87.18,2.81.3v3.24a6.64,6.64,0,0,1-1.24,4.48C507.66,33.51,506.28,34,504.36,34Z" style="fill:#e65550"/>
	<path d="M539.39,10.33h-2.13a1.19,1.19,0,0,0-.87.27,2.88,2.88,0,0,0-.51,1l-6.52,18.94-7-18.95a2.92,2.92,0,0,0-.51-.94,1.19,1.19,0,0,0-.87-.27h-2.23c-.9,0-1,.52-1,.83a2.31,2.31,0,0,0,.17.69l9.29,24.48L526.57,38a12.53,12.53,0,0,1-.92,2,4.11,4.11,0,0,1-1,1.2,3.1,3.1,0,0,1-1.3.56,9.39,9.39,0,0,1-1.8.15h-.61a1,1,0,0,0-.89.3,1.56,1.56,0,0,0-.2.94v1.52a1.57,1.57,0,0,0,.2,1,1.07,1.07,0,0,0,.89.29h1.16a11.94,11.94,0,0,0,2.71-.28,6,6,0,0,0,2.29-1.11,8.57,8.57,0,0,0,2-2.29,20.12,20.12,0,0,0,1.71-3.81l9.52-26.64a2.21,2.21,0,0,0,.17-.68C540.43,10.85,540.29,10.33,539.39,10.33Z" style="fill:#e65550"/>
	<path d="M567,33.31h-2.38a2.47,2.47,0,0,1-2.07-.79,4.81,4.81,0,0,1-.63-2.83V14.13h5a1,1,0,0,0,.89-.3,1.56,1.56,0,0,0,.2-.94V11.57a1.57,1.57,0,0,0-.2-1c-.15-.2-.43-.29-.89-.29h-5V4.13a1.28,1.28,0,0,0-.31-1,1.5,1.5,0,0,0-1-.25h-1.88a1.4,1.4,0,0,0-1,.26,1.24,1.24,0,0,0-.31,1v6.2h-3.06c-.46,0-.74.09-.89.29a1.57,1.57,0,0,0-.2,1v1.32a1.56,1.56,0,0,0,.2.94,1.06,1.06,0,0,0,.89.3h3.06V30.35c0,2.38.55,4.15,1.63,5.27h0c1.09,1.12,2.83,1.69,5.18,1.69H567a1.07,1.07,0,0,0,.9-.29,1.67,1.67,0,0,0,.19-1V34.55a1.65,1.65,0,0,0-.19-.94A1.08,1.08,0,0,0,567,33.31Z" style="fill:#e65550"/>
	<path d="M585.07,9.62a10.76,10.76,0,0,0-4.49.91,9,9,0,0,0-3,2.1V2.05a1.24,1.24,0,0,0-.31-1,1.48,1.48,0,0,0-1-.26h-1.88a1.48,1.48,0,0,0-1,.26,1.24,1.24,0,0,0-.31,1v34a1.24,1.24,0,0,0,.31,1,1.42,1.42,0,0,0,1,.26h1.88a1.42,1.42,0,0,0,1-.26,1.24,1.24,0,0,0,.31-1V20.53a7.21,7.21,0,0,1,1.73-5A6.09,6.09,0,0,1,584,13.62,5.54,5.54,0,0,1,588.25,15a6.68,6.68,0,0,1,1.31,4.58V36.07a1.27,1.27,0,0,0,.3,1,1.45,1.45,0,0,0,1,.26h1.87a1.45,1.45,0,0,0,1-.26,1.27,1.27,0,0,0,.3-1V18.76c0-3-.77-5.24-2.29-6.79S588,9.62,585.07,9.62Z" style="fill:#e65550"/>
	<path d="M610.38,9.62c-3.53,0-6.26,1.13-8.12,3.35s-2.79,5.41-2.79,9.53v3.8c0,3.72.95,6.64,2.82,8.66s4.58,3.06,8,3.06a13.85,13.85,0,0,0,4.82-.82,8.68,8.68,0,0,0,3.5-2.29,8.93,8.93,0,0,0,1.3-2,4.51,4.51,0,0,0,.58-1.92c0-.47-.09-.74-.31-.88a2.09,2.09,0,0,0-1-.16h-1.82a1.6,1.6,0,0,0-.87.17,1.88,1.88,0,0,0-.5.83c-.92,2.12-2.72,3.15-5.52,3.15-4.41,0-6.55-2.65-6.55-8.12v-.74h15.82a1.45,1.45,0,0,0,1-.26,1.27,1.27,0,0,0,.3-1V21.44C621,13.6,617.45,9.62,610.38,9.62Zm0,3.59a5.38,5.38,0,0,1,4.65,2c1,1.33,1.48,3.44,1.5,6.27h-12.6C604,15.93,606.13,13.21,610.38,13.21Z" style="fill:#e65550"/>
	<path d="M645.55,10.33h-2.13a1.19,1.19,0,0,0-.87.27,2.88,2.88,0,0,0-.51,1l-6.53,18.94-7-18.95a2.76,2.76,0,0,0-.5-.94,1.19,1.19,0,0,0-.87-.27h-2.23c-.9,0-1,.52-1,.83a2.31,2.31,0,0,0,.17.69l9.28,24.48L632.73,38a12.53,12.53,0,0,1-.92,2,4.27,4.27,0,0,1-1,1.2,3.16,3.16,0,0,1-1.3.56,9.43,9.43,0,0,1-1.81.15h-.6a1,1,0,0,0-.89.3,1.56,1.56,0,0,0-.2.94v1.52a1.57,1.57,0,0,0,.2,1,1.07,1.07,0,0,0,.89.29h1.16a11.94,11.94,0,0,0,2.71-.28,6.09,6.09,0,0,0,2.29-1.11,8.55,8.55,0,0,0,1.95-2.29,19.47,19.47,0,0,0,1.72-3.81l9.52-26.64a2,2,0,0,0,.16-.68C646.58,10.85,646.45,10.33,645.55,10.33Z" style="fill:#e65550"/>
	<path d="M671.78,9.62a14.38,14.38,0,0,0-5,.77,8.46,8.46,0,0,0-3.38,2.35,7.3,7.3,0,0,0-1.05,1.59,3.83,3.83,0,0,0-.42,1.64,1.19,1.19,0,0,0,.3.93,1.55,1.55,0,0,0,1,.26H665c.49,0,.77-.06.92-.22a2.49,2.49,0,0,0,.46-.78,4.39,4.39,0,0,1,1.85-2.24,7.39,7.39,0,0,1,3.51-.66,5.82,5.82,0,0,1,4.07,1.18,5.21,5.21,0,0,1,1.22,3.86V21c-1-.12-1.93-.21-2.9-.27s-1.92-.1-2.6-.1c-3.71,0-6.49.71-8.24,2.12s-2.67,3.7-2.67,6.76c0,2.9.86,5,2.55,6.33s4.28,2,7.76,2h.75c3.39,0,5.9-.76,7.45-2.27s2.35-3.85,2.35-7V18.2c0-3-.77-5.24-2.3-6.57S675.19,9.62,671.78,9.62ZM671.72,34h-.45c-2.27,0-3.86-.36-4.74-1.06a4.15,4.15,0,0,1-1.31-3.42,4.72,4.72,0,0,1,1.41-3.87c1-.77,2.71-1.17,5.25-1.17.6,0,1.4.05,2.38.13s1.87.18,2.81.3v3.24a6.64,6.64,0,0,1-1.24,4.48C675,33.51,673.64,34,671.72,34Z" style="fill:#e65550"/>
	<path d="M699.67,10.33H699a7.78,7.78,0,0,0-4.51,1.38h0A8.38,8.38,0,0,0,692,14.46V11.57a1.24,1.24,0,0,0-.31-1,1.42,1.42,0,0,0-1-.26h-1.77a1.43,1.43,0,0,0-1,.26,1.24,1.24,0,0,0-.31,1v24.5a1.24,1.24,0,0,0,.31,1,1.45,1.45,0,0,0,1,.26h1.87a1.45,1.45,0,0,0,1-.26,1.27,1.27,0,0,0,.3-1V23.16a12.26,12.26,0,0,1,.45-3.4A8.44,8.44,0,0,1,693.78,17a6.08,6.08,0,0,1,2-1.78,5.23,5.23,0,0,1,2.59-.63h1.32a1.06,1.06,0,0,0,.89-.29,1.57,1.57,0,0,0,.2-.95V11.57a1.57,1.57,0,0,0-.2-1C700.41,10.42,700.13,10.33,699.67,10.33Z" style="fill:#e65550"/>
	<path d="M715,9.62c-3.53,0-6.26,1.13-8.12,3.35s-2.79,5.41-2.79,9.53v3.8c0,3.72.95,6.64,2.82,8.66S711.5,38,715,38a13.76,13.76,0,0,0,4.81-.82,8.65,8.65,0,0,0,3.51-2.29,9.3,9.3,0,0,0,1.3-2,4.51,4.51,0,0,0,.58-1.92c0-.47-.1-.74-.31-.88a2.09,2.09,0,0,0-1-.16H722a1.6,1.6,0,0,0-.87.17,2,2,0,0,0-.51.83c-.91,2.12-2.71,3.15-5.51,3.15-4.41,0-6.55-2.65-6.55-8.12v-.74h15.82a1.42,1.42,0,0,0,1-.26,1.24,1.24,0,0,0,.31-1V21.44C725.67,13.6,722.08,9.62,715,9.62Zm0,3.59a5.38,5.38,0,0,1,4.65,2c1,1.33,1.48,3.44,1.5,6.27h-12.6C708.65,15.93,710.76,13.21,715,13.21Z" style="fill:#e65550"/>
</svg>